<svg id="visual" viewBox="0 0 900 600" width="900" height="600" xmlns="http://www.w3.org/2000/svg" xmlns:xlink="http://www.w3.org/1999/xlink" version="1.1"><g stroke-width="1" stroke-linejoin="bevel"><path d="M423.6 325L389.5 269L405.6 333Z" fill="#121215" stroke="#121215"></path><path d="M389.5 269L365.6 283L405.6 333Z" fill="#040409" stroke="#040409"></path><path d="M365.6 283L384.6 340L405.6 333Z" fill="#000000" stroke="#000000"></path><path d="M423.6 325L462.5 286L389.5 269Z" fill="#06060b" stroke="#06060b"></path><path d="M462.5 286L454.5 257L389.5 269Z" fill="#0d0d11" stroke="#0d0d11"></path><path d="M365.6 283L348.6 360L384.6 340Z" fill="#0d0d11" stroke="#0d0d11"></path><path d="M447.4 400L423.6 325L405.6 333Z" fill="#0f0f12" stroke="#0f0f12"></path><path d="M447.4 400L472.5 352L423.6 325Z" fill="#020207" stroke="#020207"></path><path d="M462.5 286L467.4 250L454.5 257Z" fill="#000000" stroke="#000000"></path><path d="M454.5 257L388.6 184L389.5 269Z" fill="#121215" stroke="#121215"></path><path d="M392.5 392L405.6 333L384.6 340Z" fill="#0d0d11" stroke="#0d0d11"></path><path d="M423.6 325L472.5 352L462.5 286Z" fill="#020207" stroke="#020207"></path><path d="M546.4 263L499.4 218L467.4 250Z" fill="#131316" stroke="#131316"></path><path d="M348.6 360L392.5 392L384.6 340Z" fill="#0f0f12" stroke="#0f0f12"></path><path d="M348.6 360L388.6 395L392.5 392Z" fill="#09090d" stroke="#09090d"></path><path d="M392.5 392L447.4 400L405.6 333Z" fill="#09090d" stroke="#09090d"></path><path d="M467.4 250L465.5 228L454.5 257Z" fill="#0d0d11" stroke="#0d0d11"></path><path d="M388.6 184L340.7 221L389.5 269Z" fill="#0b0b0f" stroke="#0b0b0f"></path><path d="M389.5 269L340.7 221L365.6 283Z" fill="#06060b" stroke="#06060b"></path><path d="M365.6 283L303.7 342L348.6 360Z" fill="#000000" stroke="#000000"></path><path d="M340.7 221L324.6 232L365.6 283Z" fill="#101013" stroke="#101013"></path><path d="M514.5 351L498.5 341L472.5 352Z" fill="#121215" stroke="#121215"></path><path d="M472.5 352L498.5 341L462.5 286Z" fill="#06060b" stroke="#06060b"></path><path d="M494.5 210L468.5 208L465.5 228Z" fill="#040409" stroke="#040409"></path><path d="M263.6 261L303.7 342L365.6 283Z" fill="#0d0d11" stroke="#0d0d11"></path><path d="M348.6 360L324.6 438L388.6 395Z" fill="#06060b" stroke="#06060b"></path><path d="M415.5 425L447.4 400L392.5 392Z" fill="#0f0f12" stroke="#0f0f12"></path><path d="M499.4 218L465.5 228L467.4 250Z" fill="#020207" stroke="#020207"></path><path d="M465.5 228L388.6 184L454.5 257Z" fill="#131316" stroke="#131316"></path><path d="M468.5 208L388.6 184L465.5 228Z" fill="#101013" stroke="#101013"></path><path d="M252.7 175L263.6 261L324.6 232Z" fill="#09090d" stroke="#09090d"></path><path d="M447.4 400L472.4 398L472.5 352Z" fill="#131316" stroke="#131316"></path><path d="M472.4 398L514.5 351L472.5 352Z" fill="#0d0d11" stroke="#0d0d11"></path><path d="M546.4 263L467.4 250L462.5 286Z" fill="#040409" stroke="#040409"></path><path d="M350.7 470L415.5 425L388.6 395Z" fill="#131316" stroke="#131316"></path><path d="M388.6 395L415.5 425L392.5 392Z" fill="#0f0f12" stroke="#0f0f12"></path><path d="M447.4 400L467.5 502L472.4 398Z" fill="#0d0d11" stroke="#0d0d11"></path><path d="M546.4 263L462.5 286L498.5 341Z" fill="#131316" stroke="#131316"></path><path d="M499.4 218L494.5 210L465.5 228Z" fill="#09090d" stroke="#09090d"></path><path d="M496.4 132L367.5 136L388.6 184Z" fill="#020207" stroke="#020207"></path><path d="M325.6 159L324.6 232L340.7 221Z" fill="#09090d" stroke="#09090d"></path><path d="M324.6 232L263.6 261L365.6 283Z" fill="#020207" stroke="#020207"></path><path d="M555.4 272L546.4 263L498.5 341Z" fill="#0d0d11" stroke="#0d0d11"></path><path d="M557.4 204L501.5 161L494.5 210Z" fill="#131316" stroke="#131316"></path><path d="M514.5 351L555.4 272L498.5 341Z" fill="#121215" stroke="#121215"></path><path d="M557.4 204L494.5 210L499.4 218Z" fill="#06060b" stroke="#06060b"></path><path d="M312.7 436L348.6 360L303.7 342Z" fill="#040409" stroke="#040409"></path><path d="M312.7 436L324.6 438L348.6 360Z" fill="#040409" stroke="#040409"></path><path d="M367.5 136L325.6 159L388.6 184Z" fill="#06060b" stroke="#06060b"></path><path d="M388.6 184L325.6 159L340.7 221Z" fill="#0b0b0f" stroke="#0b0b0f"></path><path d="M200.8 213L240.7 278L263.6 261Z" fill="#131316" stroke="#131316"></path><path d="M263.6 261L240.7 278L303.7 342Z" fill="#020207" stroke="#020207"></path><path d="M280.7 426L312.7 436L303.7 342Z" fill="#0d0d11" stroke="#0d0d11"></path><path d="M240.7 278L242.7 338L303.7 342Z" fill="#121215" stroke="#121215"></path><path d="M496.4 132L388.6 184L468.5 208Z" fill="#020207" stroke="#020207"></path><path d="M557.4 204L499.4 218L546.4 263Z" fill="#131316" stroke="#131316"></path><path d="M494.5 210L501.5 161L468.5 208Z" fill="#101013" stroke="#101013"></path><path d="M242.7 338L280.7 426L303.7 342Z" fill="#131316" stroke="#131316"></path><path d="M305.6 468L324.6 438L312.7 436Z" fill="#06060b" stroke="#06060b"></path><path d="M316.7 478L350.7 470L324.6 438Z" fill="#131316" stroke="#131316"></path><path d="M324.6 438L350.7 470L388.6 395Z" fill="#101013" stroke="#101013"></path><path d="M415.5 425L467.5 502L447.4 400Z" fill="#09090d" stroke="#09090d"></path><path d="M600.2 206L557.4 204L546.4 263Z" fill="#06060b" stroke="#06060b"></path><path d="M297.6 133L273.8 163L325.6 159Z" fill="#101013" stroke="#101013"></path><path d="M325.6 159L273.8 163L324.6 232Z" fill="#020207" stroke="#020207"></path><path d="M516.5 107L496.4 132L501.5 161Z" fill="#0b0b0f" stroke="#0b0b0f"></path><path d="M501.5 161L496.4 132L468.5 208Z" fill="#101013" stroke="#101013"></path><path d="M280.7 426L305.6 468L312.7 436Z" fill="#040409" stroke="#040409"></path><path d="M273.8 163L252.7 175L324.6 232Z" fill="#101013" stroke="#101013"></path><path d="M318.6 98L297.6 133L325.6 159Z" fill="#101013" stroke="#101013"></path><path d="M273.8 163L252.6 151L252.7 175Z" fill="#0f0f12" stroke="#0f0f12"></path><path d="M318.6 98L325.6 159L367.5 136Z" fill="#0b0b0f" stroke="#0b0b0f"></path><path d="M305.6 468L316.7 478L324.6 438Z" fill="#09090d" stroke="#09090d"></path><path d="M297.6 133L252.6 151L273.8 163Z" fill="#101013" stroke="#101013"></path><path d="M160.9 240L191.8 323L240.7 278Z" fill="#101013" stroke="#101013"></path><path d="M240.7 278L191.8 323L242.7 338Z" fill="#0d0d11" stroke="#0d0d11"></path><path d="M170.9 384L231.6 460L280.7 426Z" fill="#020207" stroke="#020207"></path><path d="M280.7 426L273.8 488L305.6 468Z" fill="#040409" stroke="#040409"></path><path d="M210.8 200L263.6 261L252.7 175Z" fill="#0d0d11" stroke="#0d0d11"></path><path d="M430.5 512L415.5 425L350.7 470Z" fill="#000000" stroke="#000000"></path><path d="M430.5 512L467.5 502L415.5 425Z" fill="#06060b" stroke="#06060b"></path><path d="M472.4 398L559.4 447L514.5 351Z" fill="#09090d" stroke="#09090d"></path><path d="M514.5 351L625.3 344L555.4 272Z" fill="#101013" stroke="#101013"></path><path d="M369.6 535L430.5 512L350.7 470Z" fill="#040409" stroke="#040409"></path><path d="M204.8 150L210.8 200L252.7 175Z" fill="#040409" stroke="#040409"></path><path d="M467.5 502L559.4 447L472.4 398Z" fill="#000000" stroke="#000000"></path><path d="M555.4 272L600.2 206L546.4 263Z" fill="#020207" stroke="#020207"></path><path d="M418.6 62L339.5 92L367.5 136Z" fill="#000000" stroke="#000000"></path><path d="M278.8 83L219.8 132L252.6 151Z" fill="#101013" stroke="#101013"></path><path d="M339.5 92L318.6 98L367.5 136Z" fill="#000000" stroke="#000000"></path><path d="M210.8 200L200.8 213L263.6 261Z" fill="#101013" stroke="#101013"></path><path d="M638.3 249L600.2 206L555.4 272Z" fill="#121215" stroke="#121215"></path><path d="M557.4 204L576.4 166L501.5 161Z" fill="#06060b" stroke="#06060b"></path><path d="M600.2 206L576.4 166L557.4 204Z" fill="#020207" stroke="#020207"></path><path d="M559.4 447L600.4 404L514.5 351Z" fill="#040409" stroke="#040409"></path><path d="M560.3 112L516.5 107L501.5 161Z" fill="#101013" stroke="#101013"></path><path d="M496.4 132L418.6 62L367.5 136Z" fill="#0b0b0f" stroke="#0b0b0f"></path><path d="M305.6 468L273.8 488L316.7 478Z" fill="#040409" stroke="#040409"></path><path d="M316.7 478L369.6 535L350.7 470Z" fill="#131316" stroke="#131316"></path><path d="M231.6 460L273.8 488L280.7 426Z" fill="#09090d" stroke="#09090d"></path><path d="M600.4 404L625.3 344L514.5 351Z" fill="#09090d" stroke="#09090d"></path><path d="M559.4 447L604.4 409L600.4 404Z" fill="#06060b" stroke="#06060b"></path><path d="M600.4 404L640.4 399L625.3 344Z" fill="#101013" stroke="#101013"></path><path d="M170.9 384L280.7 426L242.7 338Z" fill="#121215" stroke="#121215"></path><path d="M130.8 277L168.9 332L191.8 323Z" fill="#06060b" stroke="#06060b"></path><path d="M191.8 323L170.9 384L242.7 338Z" fill="#000000" stroke="#000000"></path><path d="M280.6 521L369.6 535L316.7 478Z" fill="#0b0b0f" stroke="#0b0b0f"></path><path d="M482.5 557L502.5 538L467.5 502Z" fill="#020207" stroke="#020207"></path><path d="M488.5 65L418.6 62L496.4 132Z" fill="#0b0b0f" stroke="#0b0b0f"></path><path d="M328.7 12L278.8 83L318.6 98Z" fill="#040409" stroke="#040409"></path><path d="M650.3 271L638.3 249L555.4 272Z" fill="#06060b" stroke="#06060b"></path><path d="M575.3 115L560.3 112L576.4 166Z" fill="#020207" stroke="#020207"></path><path d="M168.9 332L170.9 384L191.8 323Z" fill="#131316" stroke="#131316"></path><path d="M576.4 166L560.3 112L501.5 161Z" fill="#06060b" stroke="#06060b"></path><path d="M516.5 107L488.5 65L496.4 132Z" fill="#131316" stroke="#131316"></path><path d="M643.4 165L576.4 166L600.2 206Z" fill="#0d0d11" stroke="#0d0d11"></path><path d="M210.8 200L204.8 150L200.8 213Z" fill="#000000" stroke="#000000"></path><path d="M200.8 213L160.9 240L240.7 278Z" fill="#121215" stroke="#121215"></path><path d="M252.6 151L204.8 150L252.7 175Z" fill="#101013" stroke="#101013"></path><path d="M219.8 132L204.8 150L252.6 151Z" fill="#121215" stroke="#121215"></path><path d="M278.8 83L252.6 151L297.6 133Z" fill="#131316" stroke="#131316"></path><path d="M278.8 83L297.6 133L318.6 98Z" fill="#020207" stroke="#020207"></path><path d="M149.8 223L160.9 240L200.8 213Z" fill="#121215" stroke="#121215"></path><path d="M168.9 332L138.9 336L170.9 384Z" fill="#000000" stroke="#000000"></path><path d="M255.8 67L278.8 83L274.6 0Z" fill="#06060b" stroke="#06060b"></path><path d="M625.3 344L650.3 271L555.4 272Z" fill="#121215" stroke="#121215"></path><path d="M655.2 283L650.3 271L625.3 344Z" fill="#0b0b0f" stroke="#0b0b0f"></path><path d="M526.5 78L488.5 65L516.5 107Z" fill="#0f0f12" stroke="#0f0f12"></path><path d="M655.3 228L636.4 211L638.3 249Z" fill="#101013" stroke="#101013"></path><path d="M638.3 249L636.4 211L600.2 206Z" fill="#0d0d11" stroke="#0d0d11"></path><path d="M231.6 460L255.8 505L273.8 488Z" fill="#040409" stroke="#040409"></path><path d="M273.8 488L280.6 521L316.7 478Z" fill="#0d0d11" stroke="#0d0d11"></path><path d="M212.8 487L255.8 505L231.6 460Z" fill="#020207" stroke="#020207"></path><path d="M255.8 505L280.6 521L273.8 488Z" fill="#06060b" stroke="#06060b"></path><path d="M642.2 141L575.3 115L576.4 166Z" fill="#0f0f12" stroke="#0f0f12"></path><path d="M560.3 112L526.5 78L516.5 107Z" fill="#0b0b0f" stroke="#0b0b0f"></path><path d="M716.3 323L655.2 283L625.3 344Z" fill="#020207" stroke="#020207"></path><path d="M650.3 271L655.3 228L638.3 249Z" fill="#121215" stroke="#121215"></path><path d="M599.3 74L526.5 78L560.3 112Z" fill="#000000" stroke="#000000"></path><path d="M559.4 447L601.2 459L604.4 409Z" fill="#131316" stroke="#131316"></path><path d="M604.4 409L640.4 399L600.4 404Z" fill="#06060b" stroke="#06060b"></path><path d="M621.4 501L601.2 459L559.4 447Z" fill="#000000" stroke="#000000"></path><path d="M502.5 538L559.4 447L467.5 502Z" fill="#020207" stroke="#020207"></path><path d="M662.4 426L640.4 399L604.4 409Z" fill="#020207" stroke="#020207"></path><path d="M482.5 557L467.5 502L430.5 512Z" fill="#0f0f12" stroke="#0f0f12"></path><path d="M219.8 132L198.7 136L204.8 150Z" fill="#0f0f12" stroke="#0f0f12"></path><path d="M204.8 150L149.8 223L200.8 213Z" fill="#0b0b0f" stroke="#0b0b0f"></path><path d="M173.9 128L198.7 136L213.8 74Z" fill="#0b0b0f" stroke="#0b0b0f"></path><path d="M173.9 128L149.8 223L204.8 150Z" fill="#0b0b0f" stroke="#0b0b0f"></path><path d="M124.8 286L138.9 336L168.9 332Z" fill="#06060b" stroke="#06060b"></path><path d="M655.2 283L655.3 228L650.3 271Z" fill="#0b0b0f" stroke="#0b0b0f"></path><path d="M636.4 211L643.4 165L600.2 206Z" fill="#020207" stroke="#020207"></path><path d="M130.8 277L191.8 323L160.9 240Z" fill="#131316" stroke="#131316"></path><path d="M173.8 464L231.6 460L170.9 384Z" fill="#020207" stroke="#020207"></path><path d="M173.8 464L212.8 487L231.6 460Z" fill="#121215" stroke="#121215"></path><path d="M255.8 505L279.6 571L280.6 521Z" fill="#101013" stroke="#101013"></path><path d="M454.4 600L430.5 512L369.6 535Z" fill="#000000" stroke="#000000"></path><path d="M454.4 600L482.5 557L430.5 512Z" fill="#09090d" stroke="#09090d"></path><path d="M502.5 538L516.4 556L559.4 447Z" fill="#101013" stroke="#101013"></path><path d="M149.8 223L130.8 277L160.9 240Z" fill="#0d0d11" stroke="#0d0d11"></path><path d="M328.7 12L318.6 98L339.5 92Z" fill="#020207" stroke="#020207"></path><path d="M278.8 83L255.8 67L219.8 132Z" fill="#0d0d11" stroke="#0d0d11"></path><path d="M648.2 168L643.4 165L636.4 211Z" fill="#101013" stroke="#101013"></path><path d="M575.3 115L599.3 74L560.3 112Z" fill="#020207" stroke="#020207"></path><path d="M104.9 229L124.8 286L130.8 277Z" fill="#09090d" stroke="#09090d"></path><path d="M130.8 277L124.8 286L168.9 332Z" fill="#101013" stroke="#101013"></path><path d="M669.4 208L648.2 168L636.4 211Z" fill="#131316" stroke="#131316"></path><path d="M643.4 165L642.2 141L576.4 166Z" fill="#040409" stroke="#040409"></path><path d="M482.5 557L516.4 556L502.5 538Z" fill="#121215" stroke="#121215"></path><path d="M154.8 491L173.8 464L117.9 439Z" fill="#020207" stroke="#020207"></path><path d="M108.9 337L170.9 384L138.9 336Z" fill="#0f0f12" stroke="#0f0f12"></path><path d="M655.3 228L669.4 208L636.4 211Z" fill="#06060b" stroke="#06060b"></path><path d="M769.2 253L669.4 208L655.3 228Z" fill="#09090d" stroke="#09090d"></path><path d="M769.2 253L655.3 228L655.2 283Z" fill="#020207" stroke="#020207"></path><path d="M402.5 0L395.6 17L458.6 0Z" fill="#121215" stroke="#121215"></path><path d="M418.6 62L395.6 17L339.5 92Z" fill="#0d0d11" stroke="#0d0d11"></path><path d="M395.6 17L418.6 62L458.6 0Z" fill="#0b0b0f" stroke="#0b0b0f"></path><path d="M213.8 74L198.7 136L219.8 132Z" fill="#121215" stroke="#121215"></path><path d="M198.7 136L173.9 128L204.8 150Z" fill="#121215" stroke="#121215"></path><path d="M149.8 223L104.9 229L130.8 277Z" fill="#0b0b0f" stroke="#0b0b0f"></path><path d="M652.2 140L643.4 165L648.2 168Z" fill="#09090d" stroke="#09090d"></path><path d="M652.2 140L642.2 141L643.4 165Z" fill="#0b0b0f" stroke="#0b0b0f"></path><path d="M601.2 459L662.4 426L604.4 409Z" fill="#131316" stroke="#131316"></path><path d="M712.2 389L716.3 323L625.3 344Z" fill="#101013" stroke="#101013"></path><path d="M669.2 460L662.4 426L601.2 459Z" fill="#101013" stroke="#101013"></path><path d="M265.7 0L213.8 74L255.8 67Z" fill="#09090d" stroke="#09090d"></path><path d="M255.8 67L213.8 74L219.8 132Z" fill="#0b0b0f" stroke="#0b0b0f"></path><path d="M74.8 323L108.9 337L124.8 286Z" fill="#0b0b0f" stroke="#0b0b0f"></path><path d="M124.8 286L108.9 337L138.9 336Z" fill="#121215" stroke="#121215"></path><path d="M395.6 17L328.7 12L339.5 92Z" fill="#020207" stroke="#020207"></path><path d="M730.2 184L652.2 140L648.2 168Z" fill="#121215" stroke="#121215"></path><path d="M642.2 141L599.3 74L575.3 115Z" fill="#0b0b0f" stroke="#0b0b0f"></path><path d="M266.8 600L279.6 571L197.7 600Z" fill="#020207" stroke="#020207"></path><path d="M280.6 521L279.6 571L369.6 535Z" fill="#131316" stroke="#131316"></path><path d="M482.5 557L514.5 596L516.4 556Z" fill="#020207" stroke="#020207"></path><path d="M279.6 571L255.8 505L197.7 600Z" fill="#0b0b0f" stroke="#0b0b0f"></path><path d="M516.4 556L621.4 501L559.4 447Z" fill="#020207" stroke="#020207"></path><path d="M458.6 0L488.5 65L546.5 0Z" fill="#06060b" stroke="#06060b"></path><path d="M458.6 0L418.6 62L488.5 65Z" fill="#09090d" stroke="#09090d"></path><path d="M395.6 17L387.6 -1L328.7 12Z" fill="#09090d" stroke="#09090d"></path><path d="M652.2 140L599.3 74L642.2 141Z" fill="#0f0f12" stroke="#0f0f12"></path><path d="M402.5 0L387.6 -1L395.6 17Z" fill="#0b0b0f" stroke="#0b0b0f"></path><path d="M334.5 600L454.4 600L369.6 535Z" fill="#0d0d11" stroke="#0d0d11"></path><path d="M516.4 556L573.4 601L621.4 501Z" fill="#131316" stroke="#131316"></path><path d="M81.9 175L104.9 229L149.8 223Z" fill="#06060b" stroke="#06060b"></path><path d="M561.4 24L488.5 65L526.5 78Z" fill="#09090d" stroke="#09090d"></path><path d="M402.5 0L458.6 0L387.6 -1Z" fill="#121215" stroke="#121215"></path><path d="M333.6 600L334.5 600L369.6 535Z" fill="#121215" stroke="#121215"></path><path d="M279.6 571L333.6 600L369.6 535Z" fill="#000000" stroke="#000000"></path><path d="M621.4 501L669.2 460L601.2 459Z" fill="#020207" stroke="#020207"></path><path d="M712.2 389L625.3 344L640.4 399Z" fill="#0b0b0f" stroke="#0b0b0f"></path><path d="M117.9 439L173.8 464L170.9 384Z" fill="#121215" stroke="#121215"></path><path d="M173.8 464L154.8 491L212.8 487Z" fill="#09090d" stroke="#09090d"></path><path d="M712.2 389L640.4 399L662.4 426Z" fill="#0d0d11" stroke="#0d0d11"></path><path d="M669.4 208L730.2 184L648.2 168Z" fill="#040409" stroke="#040409"></path><path d="M94.8 422L117.9 439L170.9 384Z" fill="#040409" stroke="#040409"></path><path d="M511.5 600L514.5 596L482.5 557Z" fill="#121215" stroke="#121215"></path><path d="M621.4 501L675.3 484L669.2 460Z" fill="#101013" stroke="#101013"></path><path d="M266.8 600L298.6 600L279.6 571Z" fill="#131316" stroke="#131316"></path><path d="M279.6 571L298.6 600L333.6 600Z" fill="#000000" stroke="#000000"></path><path d="M546.5 0L561.4 24L581.4 0Z" fill="#000000" stroke="#000000"></path><path d="M599.3 74L561.4 24L526.5 78Z" fill="#131316" stroke="#131316"></path><path d="M454.4 600L511.5 600L482.5 557Z" fill="#121215" stroke="#121215"></path><path d="M514.5 596L536.4 600L516.4 556Z" fill="#101013" stroke="#101013"></path><path d="M213.8 74L153.9 94L173.9 128Z" fill="#09090d" stroke="#09090d"></path><path d="M173.9 128L81.9 175L149.8 223Z" fill="#06060b" stroke="#06060b"></path><path d="M120.9 76L153.9 94L157.8 21Z" fill="#020207" stroke="#020207"></path><path d="M707.2 446L712.2 389L662.4 426Z" fill="#0f0f12" stroke="#0f0f12"></path><path d="M387.6 -1L274.6 0L328.7 12Z" fill="#020207" stroke="#020207"></path><path d="M328.7 12L274.6 0L278.8 83Z" fill="#020207" stroke="#020207"></path><path d="M104.9 229L74.8 323L124.8 286Z" fill="#131316" stroke="#131316"></path><path d="M108.9 337L94.8 422L170.9 384Z" fill="#101013" stroke="#101013"></path><path d="M511.5 600L536.4 600L514.5 596Z" fill="#101013" stroke="#101013"></path><path d="M197.7 600L255.8 505L212.8 487Z" fill="#040409" stroke="#040409"></path><path d="M105.9 -4L265.7 0L274.6 0Z" fill="#06060b" stroke="#06060b"></path><path d="M274.6 0L265.7 0L255.8 67Z" fill="#0d0d11" stroke="#0d0d11"></path><path d="M647.3 524L675.3 484L621.4 501Z" fill="#0d0d11" stroke="#0d0d11"></path><path d="M669.2 460L707.2 446L662.4 426Z" fill="#09090d" stroke="#09090d"></path><path d="M133.9 553L155.8 544L154.8 491Z" fill="#020207" stroke="#020207"></path><path d="M74.8 323L94.8 422L108.9 337Z" fill="#09090d" stroke="#09090d"></path><path d="M601.3 600L647.3 524L621.4 501Z" fill="#020207" stroke="#020207"></path><path d="M606.4 26L561.4 24L599.3 74Z" fill="#0d0d11" stroke="#0d0d11"></path><path d="M561.4 24L546.5 0L488.5 65Z" fill="#0d0d11" stroke="#0d0d11"></path><path d="M458.6 0L546.5 0L387.6 -1Z" fill="#0f0f12" stroke="#0f0f12"></path><path d="M730.2 476L707.2 446L675.3 484Z" fill="#121215" stroke="#121215"></path><path d="M675.3 484L707.2 446L669.2 460Z" fill="#040409" stroke="#040409"></path><path d="M656.2 39L606.4 26L599.3 74Z" fill="#131316" stroke="#131316"></path><path d="M82.9 157L81.9 175L173.9 128Z" fill="#06060b" stroke="#06060b"></path><path d="M104.9 229L35.9 308L74.8 323Z" fill="#0b0b0f" stroke="#0b0b0f"></path><path d="M133.9 553L154.8 491L117.9 439Z" fill="#000000" stroke="#000000"></path><path d="M154.8 491L155.8 544L212.8 487Z" fill="#0f0f12" stroke="#0f0f12"></path><path d="M511.5 600L573.4 601L536.4 600Z" fill="#0b0b0f" stroke="#0b0b0f"></path><path d="M536.4 600L573.4 601L516.4 556Z" fill="#0f0f12" stroke="#0f0f12"></path><path d="M100.9 622L573.4 601L511.5 600Z" fill="#0d0d11" stroke="#0d0d11"></path><path d="M100.9 622L511.5 600L454.4 600Z" fill="#000000" stroke="#000000"></path><path d="M100.9 622L454.4 600L334.5 600Z" fill="#06060b" stroke="#06060b"></path><path d="M100.9 622L334.5 600L333.6 600Z" fill="#000000" stroke="#000000"></path><path d="M100.9 622L333.6 600L298.6 600Z" fill="#09090d" stroke="#09090d"></path><path d="M769.2 253L730.2 184L669.4 208Z" fill="#0f0f12" stroke="#0f0f12"></path><path d="M652.2 140L656.2 39L599.3 74Z" fill="#0d0d11" stroke="#0d0d11"></path><path d="M769.2 253L655.2 283L716.3 323Z" fill="#121215" stroke="#121215"></path><path d="M153.9 94L82.9 157L173.9 128Z" fill="#0f0f12" stroke="#0f0f12"></path><path d="M606.4 26L581.4 0L561.4 24Z" fill="#000000" stroke="#000000"></path><path d="M546.5 0L581.4 0L387.6 -1Z" fill="#000000" stroke="#000000"></path><path d="M707.2 446L739.1 411L712.2 389Z" fill="#000000" stroke="#000000"></path><path d="M712.2 389L775.2 322L716.3 323Z" fill="#06060b" stroke="#06060b"></path><path d="M730.2 476L739.1 411L707.2 446Z" fill="#131316" stroke="#131316"></path><path d="M693.2 590L682.3 521L647.3 524Z" fill="#020207" stroke="#020207"></path><path d="M647.3 524L682.3 521L675.3 484Z" fill="#0b0b0f" stroke="#0b0b0f"></path><path d="M157.8 21L153.9 94L213.8 74Z" fill="#0f0f12" stroke="#0f0f12"></path><path d="M153.9 94L120.9 76L82.9 157Z" fill="#09090d" stroke="#09090d"></path><path d="M573.4 601L601.3 600L621.4 501Z" fill="#06060b" stroke="#06060b"></path><path d="M155.8 544L197.7 600L212.8 487Z" fill="#000000" stroke="#000000"></path><path d="M266.8 600L100.9 622L298.6 600Z" fill="#121215" stroke="#121215"></path><path d="M739.2 82L656.2 39L652.2 140Z" fill="#131316" stroke="#131316"></path><path d="M606.4 26L630.4 0L581.4 0Z" fill="#131316" stroke="#131316"></path><path d="M0 302L35.9 308L0 275Z" fill="#101013" stroke="#101013"></path><path d="M74.8 323L22.9 392L94.8 422Z" fill="#06060b" stroke="#06060b"></path><path d="M89.8 577L133.9 553L117.9 439Z" fill="#101013" stroke="#101013"></path><path d="M35.9 308L104.9 229L0 275Z" fill="#101013" stroke="#101013"></path><path d="M89.8 577L117.9 439L0 501Z" fill="#040409" stroke="#040409"></path><path d="M155.8 544L153.8 600L197.7 600Z" fill="#121215" stroke="#121215"></path><path d="M775.2 271L769.2 253L716.3 323Z" fill="#131316" stroke="#131316"></path><path d="M730.2 184L739.2 82L652.2 140Z" fill="#0b0b0f" stroke="#0b0b0f"></path><path d="M170.9 0L157.8 21L213.8 74Z" fill="#101013" stroke="#101013"></path><path d="M741.1 478L730.2 476L682.3 521Z" fill="#040409" stroke="#040409"></path><path d="M682.3 521L730.2 476L675.3 484Z" fill="#0f0f12" stroke="#0f0f12"></path><path d="M739.1 411L775.2 322L712.2 389Z" fill="#101013" stroke="#101013"></path><path d="M801.1 308L775.2 322L823.1 373Z" fill="#121215" stroke="#121215"></path><path d="M775.2 322L775.2 271L716.3 323Z" fill="#101013" stroke="#101013"></path><path d="M656.2 39L630.4 0L606.4 26Z" fill="#101013" stroke="#101013"></path><path d="M581.4 0L630.4 0L387.6 -1Z" fill="#101013" stroke="#101013"></path><path d="M105.9 -4L170.9 0L265.7 0Z" fill="#020207" stroke="#020207"></path><path d="M265.7 0L170.9 0L213.8 74Z" fill="#09090d" stroke="#09090d"></path><path d="M157.8 21L97.8 0L120.9 76Z" fill="#121215" stroke="#121215"></path><path d="M105.9 -4L165.8 0L170.9 0Z" fill="#0b0b0f" stroke="#0b0b0f"></path><path d="M170.9 0L165.8 0L157.8 21Z" fill="#040409" stroke="#040409"></path><path d="M777.1 521L741.1 478L682.3 521Z" fill="#101013" stroke="#101013"></path><path d="M730.2 476L741.1 478L739.1 411Z" fill="#000000" stroke="#000000"></path><path d="M775.2 322L786.1 293L775.2 271Z" fill="#000000" stroke="#000000"></path><path d="M775.2 271L797.1 285L769.2 253Z" fill="#0d0d11" stroke="#0d0d11"></path><path d="M797.1 285L786.1 293L801.1 308Z" fill="#0d0d11" stroke="#0d0d11"></path><path d="M133.9 553L153.8 600L155.8 544Z" fill="#101013" stroke="#101013"></path><path d="M197.7 600L100.9 622L266.8 600Z" fill="#09090d" stroke="#09090d"></path><path d="M0 341L22.9 392L74.8 323Z" fill="#040409" stroke="#040409"></path><path d="M133.9 553L89.8 577L153.8 600Z" fill="#131316" stroke="#131316"></path><path d="M801.1 308L786.1 293L775.2 322Z" fill="#0b0b0f" stroke="#0b0b0f"></path><path d="M786.1 293L797.1 285L775.2 271Z" fill="#09090d" stroke="#09090d"></path><path d="M787.1 124L739.2 82L730.2 184Z" fill="#121215" stroke="#121215"></path><path d="M827.2 298L801.1 308L823.1 373Z" fill="#09090d" stroke="#09090d"></path><path d="M0 275L104.9 229L0 198Z" fill="#131316" stroke="#131316"></path><path d="M35.9 308L0 341L74.8 323Z" fill="#040409" stroke="#040409"></path><path d="M104.9 229L81.9 175L0 198Z" fill="#06060b" stroke="#06060b"></path><path d="M792.1 177L730.2 184L769.2 253Z" fill="#121215" stroke="#121215"></path><path d="M656.2 39L716.3 0L630.4 0Z" fill="#0f0f12" stroke="#0f0f12"></path><path d="M81.9 175L82.9 157L0 161Z" fill="#101013" stroke="#101013"></path><path d="M0 198L81.9 175L0 161Z" fill="#0f0f12" stroke="#0f0f12"></path><path d="M0 302L0 341L35.9 308Z" fill="#131316" stroke="#131316"></path><path d="M814.2 191L769.2 253L840.1 231Z" fill="#0d0d11" stroke="#0d0d11"></path><path d="M814.2 191L792.1 177L769.2 253Z" fill="#06060b" stroke="#06060b"></path><path d="M601.3 600L693.2 590L647.3 524Z" fill="#06060b" stroke="#06060b"></path><path d="M728.1 25L727.1 45L765.1 0Z" fill="#101013" stroke="#101013"></path><path d="M739.2 82L727.1 45L656.2 39Z" fill="#040409" stroke="#040409"></path><path d="M0 161L82.9 157L11.9 45Z" fill="#020207" stroke="#020207"></path><path d="M-9.1 373L0 403L22.9 392Z" fill="#0b0b0f" stroke="#0b0b0f"></path><path d="M22.9 392L-15.1 428L94.8 422Z" fill="#040409" stroke="#040409"></path><path d="M0 494L117.9 439L94.8 422Z" fill="#0f0f12" stroke="#0f0f12"></path><path d="M0 341L-9.1 373L22.9 392Z" fill="#0d0d11" stroke="#0d0d11"></path><path d="M0 302L-9.1 373L0 341Z" fill="#040409" stroke="#040409"></path><path d="M0 275L-9.1 373L0 302Z" fill="#0b0b0f" stroke="#0b0b0f"></path><path d="M-34.1 487L-9.1 373L0 275Z" fill="#0b0b0f" stroke="#0b0b0f"></path><path d="M792.1 177L787.1 124L730.2 184Z" fill="#09090d" stroke="#09090d"></path><path d="M387.6 -1L105.9 -4L274.6 0Z" fill="#0f0f12" stroke="#0f0f12"></path><path d="M165.8 0L105.9 -4L157.8 21Z" fill="#121215" stroke="#121215"></path><path d="M716.3 0L105.9 -4L387.6 -1Z" fill="#101013" stroke="#101013"></path><path d="M11.9 45L82.9 157L120.9 76Z" fill="#121215" stroke="#121215"></path><path d="M-34.1 487L-15.1 428L-9.1 373Z" fill="#131316" stroke="#131316"></path><path d="M801.1 308L827.2 298L797.1 285Z" fill="#0d0d11" stroke="#0d0d11"></path><path d="M792.1 177L814.2 191L787.1 124Z" fill="#020207" stroke="#020207"></path><path d="M823.1 373L775.2 322L739.1 411Z" fill="#000000" stroke="#000000"></path><path d="M823.1 373L739.1 411L840.1 416Z" fill="#0b0b0f" stroke="#0b0b0f"></path><path d="M840.1 231L769.2 253L797.1 285Z" fill="#131316" stroke="#131316"></path><path d="M780.2 77L727.1 45L739.2 82Z" fill="#131316" stroke="#131316"></path><path d="M727.1 45L728.1 25L656.2 39Z" fill="#101013" stroke="#101013"></path><path d="M105.9 -4L97.8 0L157.8 21Z" fill="#0b0b0f" stroke="#0b0b0f"></path><path d="M820.1 456L739.1 411L741.1 478Z" fill="#000000" stroke="#000000"></path><path d="M733.2 0L716.3 0L728.1 25Z" fill="#101013" stroke="#101013"></path><path d="M728.1 25L716.3 0L656.2 39Z" fill="#040409" stroke="#040409"></path><path d="M630.4 0L716.3 0L387.6 -1Z" fill="#0d0d11" stroke="#0d0d11"></path><path d="M726.2 591L777.1 521L682.3 521Z" fill="#000000" stroke="#000000"></path><path d="M735.2 600L726.2 591L693.2 590Z" fill="#0b0b0f" stroke="#0b0b0f"></path><path d="M693.2 590L726.2 591L682.3 521Z" fill="#101013" stroke="#101013"></path><path d="M-34.1 487L0 275L0 198Z" fill="#0d0d11" stroke="#0d0d11"></path><path d="M-9.1 373L-15.1 428L0 403Z" fill="#09090d" stroke="#09090d"></path><path d="M0 403L-15.1 428L22.9 392Z" fill="#020207" stroke="#020207"></path><path d="M800.1 97L780.2 77L787.1 124Z" fill="#0d0d11" stroke="#0d0d11"></path><path d="M787.1 124L780.2 77L739.2 82Z" fill="#040409" stroke="#040409"></path><path d="M89.8 577L100.9 622L153.8 600Z" fill="#06060b" stroke="#06060b"></path><path d="M153.8 600L100.9 622L197.7 600Z" fill="#000000" stroke="#000000"></path><path d="M900 613L735.2 600L601.3 600Z" fill="#101013" stroke="#101013"></path><path d="M77.9 600L100.9 622L89.8 577Z" fill="#0f0f12" stroke="#0f0f12"></path><path d="M14.9 600L77.9 600L89.8 577Z" fill="#06060b" stroke="#06060b"></path><path d="M854.1 252L840.1 231L797.1 285Z" fill="#0b0b0f" stroke="#0b0b0f"></path><path d="M880.1 140L800.1 97L787.1 124Z" fill="#0f0f12" stroke="#0f0f12"></path><path d="M854.1 252L797.1 285L827.2 298Z" fill="#0b0b0f" stroke="#0b0b0f"></path><path d="M-15.1 428L0 494L94.8 422Z" fill="#121215" stroke="#121215"></path><path d="M777.1 521L820.1 456L741.1 478Z" fill="#121215" stroke="#121215"></path><path d="M900 268L854.1 252L827.2 298Z" fill="#0d0d11" stroke="#0d0d11"></path><path d="M844.1 64L800.1 97L880.1 140Z" fill="#121215" stroke="#121215"></path><path d="M765.1 0L733.2 0L728.1 25Z" fill="#0f0f12" stroke="#0f0f12"></path><path d="M765.1 0L727.1 45L780.2 77Z" fill="#020207" stroke="#020207"></path><path d="M716.3 0L733.2 0L105.9 -4Z" fill="#040409" stroke="#040409"></path><path d="M726.2 591L741.2 600L777.1 521Z" fill="#121215" stroke="#121215"></path><path d="M777.1 521L832.1 518L820.1 456Z" fill="#0f0f12" stroke="#0f0f12"></path><path d="M601.3 600L735.2 600L693.2 590Z" fill="#09090d" stroke="#09090d"></path><path d="M900 613L601.3 600L573.4 601Z" fill="#000000" stroke="#000000"></path><path d="M-34.1 487L0 501L0 494Z" fill="#121215" stroke="#121215"></path><path d="M0 494L0 501L117.9 439Z" fill="#000000" stroke="#000000"></path><path d="M900 613L741.2 600L735.2 600Z" fill="#101013" stroke="#101013"></path><path d="M735.2 600L741.2 600L726.2 591Z" fill="#131316" stroke="#131316"></path><path d="M820.1 456L840.1 416L739.1 411Z" fill="#101013" stroke="#101013"></path><path d="M863.1 379L827.2 298L823.1 373Z" fill="#020207" stroke="#020207"></path><path d="M880.1 140L787.1 124L814.2 191Z" fill="#0b0b0f" stroke="#0b0b0f"></path><path d="M97.8 0L11.9 45L120.9 76Z" fill="#000000" stroke="#000000"></path><path d="M883.1 377L863.1 379L840.1 416Z" fill="#0b0b0f" stroke="#0b0b0f"></path><path d="M840.1 416L863.1 379L823.1 373Z" fill="#121215" stroke="#121215"></path><path d="M900 465L840.1 416L820.1 456Z" fill="#06060b" stroke="#06060b"></path><path d="M770.2 0L765.1 0L780.2 77Z" fill="#040409" stroke="#040409"></path><path d="M733.2 0L765.1 0L105.9 -4Z" fill="#06060b" stroke="#06060b"></path><path d="M-15.1 428L-34.1 487L0 494Z" fill="#0d0d11" stroke="#0d0d11"></path><path d="M0 501L0 556L89.8 577Z" fill="#0f0f12" stroke="#0f0f12"></path><path d="M0 161L-34.1 487L0 198Z" fill="#0d0d11" stroke="#0d0d11"></path><path d="M0 6L-34.1 487L0 161Z" fill="#0f0f12" stroke="#0f0f12"></path><path d="M786.1 600L807.2 546L777.1 521Z" fill="#121215" stroke="#121215"></path><path d="M844.1 64L780.2 77L800.1 97Z" fill="#101013" stroke="#101013"></path><path d="M844.1 64L770.2 0L780.2 77Z" fill="#0b0b0f" stroke="#0b0b0f"></path><path d="M765.1 0L770.2 0L105.9 -4Z" fill="#131316" stroke="#131316"></path><path d="M-34.1 487L-20.1 520L0 501Z" fill="#020207" stroke="#020207"></path><path d="M77.9 600L14.9 600L100.9 622Z" fill="#0f0f12" stroke="#0f0f12"></path><path d="M-20.1 520L0 556L0 501Z" fill="#0d0d11" stroke="#0d0d11"></path><path d="M97.8 0L29.9 0L11.9 45Z" fill="#0d0d11" stroke="#0d0d11"></path><path d="M105.9 -4L29.9 0L97.8 0Z" fill="#101013" stroke="#101013"></path><path d="M807.2 546L832.1 518L777.1 521Z" fill="#000000" stroke="#000000"></path><path d="M900 465L883.1 377L840.1 416Z" fill="#101013" stroke="#101013"></path><path d="M900 331L900 321L827.2 298Z" fill="#000000" stroke="#000000"></path><path d="M903.1 581L900 495L832.1 518Z" fill="#0b0b0f" stroke="#0b0b0f"></path><path d="M741.2 600L786.1 600L777.1 521Z" fill="#09090d" stroke="#09090d"></path><path d="M900 613L786.1 600L741.2 600Z" fill="#020207" stroke="#020207"></path><path d="M0 600L14.9 600L0 556Z" fill="#0f0f12" stroke="#0f0f12"></path><path d="M0 556L14.9 600L89.8 577Z" fill="#0b0b0f" stroke="#0b0b0f"></path><path d="M29.9 0L0 6L11.9 45Z" fill="#000000" stroke="#000000"></path><path d="M11.9 45L0 6L0 161Z" fill="#000000" stroke="#000000"></path><path d="M900 331L827.2 298L863.1 379Z" fill="#101013" stroke="#101013"></path><path d="M854.1 252L900 232L840.1 231Z" fill="#0f0f12" stroke="#0f0f12"></path><path d="M900 465L900 331L883.1 377Z" fill="#0d0d11" stroke="#0d0d11"></path><path d="M883.1 377L900 331L863.1 379Z" fill="#0d0d11" stroke="#0d0d11"></path><path d="M900 321L900 268L827.2 298Z" fill="#101013" stroke="#101013"></path><path d="M105.9 -4L0 0L29.9 0Z" fill="#121215" stroke="#121215"></path><path d="M29.9 0L0 0L0 6Z" fill="#121215" stroke="#121215"></path><path d="M0 6L0 0L-34.1 487Z" fill="#09090d" stroke="#09090d"></path><path d="M-34.1 487L0 600L-20.1 520Z" fill="#101013" stroke="#101013"></path><path d="M-20.1 520L0 600L0 556Z" fill="#000000" stroke="#000000"></path><path d="M14.9 600L0 600L100.9 622Z" fill="#0f0f12" stroke="#0f0f12"></path><path d="M880.1 140L814.2 191L900 185Z" fill="#0f0f12" stroke="#0f0f12"></path><path d="M900 268L900 232L854.1 252Z" fill="#0f0f12" stroke="#0f0f12"></path><path d="M900 185L814.2 191L840.1 231Z" fill="#131316" stroke="#131316"></path><path d="M900 232L900 185L840.1 231Z" fill="#040409" stroke="#040409"></path><path d="M900 185L900 137L880.1 140Z" fill="#0f0f12" stroke="#0f0f12"></path><path d="M880.1 140L900 137L844.1 64Z" fill="#040409" stroke="#040409"></path><path d="M900 487L820.1 456L832.1 518Z" fill="#0b0b0f" stroke="#0b0b0f"></path><path d="M900 487L900 465L820.1 456Z" fill="#121215" stroke="#121215"></path><path d="M900 495L900 487L832.1 518Z" fill="#000000" stroke="#000000"></path><path d="M869.1 600L832.1 518L807.2 546Z" fill="#0d0d11" stroke="#0d0d11"></path><path d="M900 613L869.1 600L786.1 600Z" fill="#0f0f12" stroke="#0f0f12"></path><path d="M786.1 600L869.1 600L807.2 546Z" fill="#020207" stroke="#020207"></path><path d="M900 137L900 40L844.1 64Z" fill="#000000" stroke="#000000"></path><path d="M844.1 64L882.1 0L770.2 0Z" fill="#020207" stroke="#020207"></path><path d="M900 40L882.1 0L844.1 64Z" fill="#131316" stroke="#131316"></path><path d="M770.2 0L882.1 0L105.9 -4Z" fill="#09090d" stroke="#09090d"></path><path d="M869.1 600L903.1 581L832.1 518Z" fill="#000000" stroke="#000000"></path><path d="M900 495L903.1 581L900 487Z" fill="#131316" stroke="#131316"></path><path d="M900 487L903.1 581L900 465Z" fill="#131316" stroke="#131316"></path><path d="M900 465L903.1 581L900 331Z" fill="#020207" stroke="#020207"></path><path d="M900 331L903.1 581L900 321Z" fill="#040409" stroke="#040409"></path><path d="M900 321L903.1 581L900 268Z" fill="#020207" stroke="#020207"></path><path d="M900 268L903.1 581L900 232Z" fill="#020207" stroke="#020207"></path><path d="M900 232L903.1 581L900 185Z" fill="#06060b" stroke="#06060b"></path><path d="M900 185L903.1 581L900 137Z" fill="#040409" stroke="#040409"></path><path d="M900 137L903.1 581L900 40Z" fill="#101013" stroke="#101013"></path><path d="M903.1 581L900 0L900 40Z" fill="#06060b" stroke="#06060b"></path><path d="M900 40L900 0L882.1 0Z" fill="#020207" stroke="#020207"></path><path d="M882.1 0L900 0L105.9 -4Z" fill="#121215" stroke="#121215"></path><path d="M869.1 600L900 600L903.1 581Z" fill="#020207" stroke="#020207"></path><path d="M900 613L900 600L869.1 600Z" fill="#0f0f12" stroke="#0f0f12"></path><path d="M100.9 622L900 613L573.4 601Z" fill="#131316" stroke="#131316"></path><path d="M900 600L900 613L903.1 581Z" fill="#06060b" stroke="#06060b"></path></g></svg>