<svg id="visual" viewBox="0 0 900 600" width="900" height="600" xmlns="http://www.w3.org/2000/svg" xmlns:xlink="http://www.w3.org/1999/xlink" version="1.1"><g stroke-width="1" stroke-linejoin="bevel"><path d="M436.5 302L467.5 324L469.5 311Z" fill="#000e1c" stroke="#000e1c"></path><path d="M469.5 311L461.4 271L436.5 302Z" fill="#010619" stroke="#010619"></path><path d="M494.4 262L476.4 274L469.5 311Z" fill="#010819" stroke="#010819"></path><path d="M469.5 311L476.4 274L461.4 271Z" fill="#020518" stroke="#020518"></path><path d="M461.4 271L431.6 266L436.5 302Z" fill="#010a1a" stroke="#010a1a"></path><path d="M454.6 243L423.5 263L431.6 266Z" fill="#00101d" stroke="#00101d"></path><path d="M431.6 266L423.5 263L436.5 302Z" fill="#00111e" stroke="#00111e"></path><path d="M454.6 243L431.6 266L461.4 271Z" fill="#010619" stroke="#010619"></path><path d="M552.3 336L494.4 262L469.5 311Z" fill="#010c1b" stroke="#010c1b"></path><path d="M476.4 274L454.6 243L461.4 271Z" fill="#020518" stroke="#020518"></path><path d="M494.4 262L454.6 243L476.4 274Z" fill="#020116" stroke="#020116"></path><path d="M376.6 347L402.5 369L436.5 302Z" fill="#000e1c" stroke="#000e1c"></path><path d="M436.5 302L402.5 369L467.5 324Z" fill="#00101d" stroke="#00101d"></path><path d="M384.6 208L377.6 288L423.5 263Z" fill="#010c1b" stroke="#010c1b"></path><path d="M423.5 263L377.6 288L436.5 302Z" fill="#00111e" stroke="#00111e"></path><path d="M377.6 288L376.6 347L436.5 302Z" fill="#00111e" stroke="#00111e"></path><path d="M552.3 336L505.4 249L494.4 262Z" fill="#00101d" stroke="#00101d"></path><path d="M494.4 262L505.4 249L454.6 243Z" fill="#010819" stroke="#010819"></path><path d="M402.5 369L497.4 388L467.5 324Z" fill="#010a1a" stroke="#010a1a"></path><path d="M467.5 324L552.3 336L469.5 311Z" fill="#020317" stroke="#020317"></path><path d="M377.6 288L360.6 310L376.6 347Z" fill="#020317" stroke="#020317"></path><path d="M377.6 288L354.6 302L360.6 310Z" fill="#00111e" stroke="#00111e"></path><path d="M360.6 310L336.5 343L376.6 347Z" fill="#00111e" stroke="#00111e"></path><path d="M497.4 388L552.3 336L467.5 324Z" fill="#00101d" stroke="#00101d"></path><path d="M468.5 190L402.5 209L454.6 243Z" fill="#010619" stroke="#010619"></path><path d="M454.6 243L402.5 209L423.5 263Z" fill="#020518" stroke="#020518"></path><path d="M377.6 288L384.6 208L354.6 302Z" fill="#00111e" stroke="#00111e"></path><path d="M354.6 302L336.5 343L360.6 310Z" fill="#020518" stroke="#020518"></path><path d="M362.5 439L398.6 430L402.5 369Z" fill="#000e1c" stroke="#000e1c"></path><path d="M402.5 209L384.6 208L423.5 263Z" fill="#010a1a" stroke="#010a1a"></path><path d="M354.6 302L285.8 352L336.5 343Z" fill="#010619" stroke="#010619"></path><path d="M505.4 249L468.5 190L454.6 243Z" fill="#010d1c" stroke="#010d1c"></path><path d="M402.5 209L385.5 141L384.6 208Z" fill="#00111e" stroke="#00111e"></path><path d="M320.7 394L402.5 369L376.6 347Z" fill="#00111e" stroke="#00111e"></path><path d="M402.5 369L427.5 440L497.4 388Z" fill="#00101d" stroke="#00101d"></path><path d="M398.6 430L427.5 440L402.5 369Z" fill="#020116" stroke="#020116"></path><path d="M427.5 440L485.5 438L497.4 388Z" fill="#020518" stroke="#020518"></path><path d="M497.4 388L562.4 401L552.3 336Z" fill="#010a1a" stroke="#010a1a"></path><path d="M506.4 450L494.5 441L456.6 471Z" fill="#020317" stroke="#020317"></path><path d="M485.5 438L494.5 441L497.4 388Z" fill="#010c1b" stroke="#010c1b"></path><path d="M558.3 188L468.4 177L468.5 190Z" fill="#020518" stroke="#020518"></path><path d="M468.5 190L468.4 177L402.5 209Z" fill="#010819" stroke="#010819"></path><path d="M558.3 188L468.5 190L505.4 249Z" fill="#010819" stroke="#010819"></path><path d="M494.5 441L541.4 422L497.4 388Z" fill="#000e1c" stroke="#000e1c"></path><path d="M541.4 422L562.4 401L497.4 388Z" fill="#000e1c" stroke="#000e1c"></path><path d="M494.5 441L506.4 450L541.4 422Z" fill="#00111e" stroke="#00111e"></path><path d="M456.6 471L494.5 441L485.5 438Z" fill="#020116" stroke="#020116"></path><path d="M336.5 343L320.7 394L376.6 347Z" fill="#020518" stroke="#020518"></path><path d="M342.6 430L362.5 439L402.5 369Z" fill="#010a1a" stroke="#010a1a"></path><path d="M398.6 430L398.6 473L427.5 440Z" fill="#000e1c" stroke="#000e1c"></path><path d="M427.5 440L456.6 471L485.5 438Z" fill="#000e1c" stroke="#000e1c"></path><path d="M398.6 473L456.6 471L427.5 440Z" fill="#010a1a" stroke="#010a1a"></path><path d="M629.3 366L605.4 283L552.3 336Z" fill="#00111e" stroke="#00111e"></path><path d="M552.3 336L605.4 283L505.4 249Z" fill="#020518" stroke="#020518"></path><path d="M320.7 394L342.6 430L402.5 369Z" fill="#020518" stroke="#020518"></path><path d="M605.4 283L558.3 188L505.4 249Z" fill="#00111e" stroke="#00111e"></path><path d="M342.6 471L398.6 473L362.5 439Z" fill="#020116" stroke="#020116"></path><path d="M362.5 439L398.6 473L398.6 430Z" fill="#020518" stroke="#020518"></path><path d="M250.8 221L285.8 352L354.6 302Z" fill="#010c1b" stroke="#010c1b"></path><path d="M336.5 343L285.8 352L320.7 394Z" fill="#010d1c" stroke="#010d1c"></path><path d="M288.6 435L342.6 471L342.6 430Z" fill="#010819" stroke="#010819"></path><path d="M558.3 188L463.5 134L468.4 177Z" fill="#010a1a" stroke="#010a1a"></path><path d="M468.4 177L385.5 141L402.5 209Z" fill="#00101d" stroke="#00101d"></path><path d="M385.5 141L326.6 180L384.6 208Z" fill="#010619" stroke="#010619"></path><path d="M384.6 208L326.6 180L354.6 302Z" fill="#010c1b" stroke="#010c1b"></path><path d="M463.5 134L385.5 141L468.4 177Z" fill="#010819" stroke="#010819"></path><path d="M642.4 374L629.3 366L562.4 401Z" fill="#020518" stroke="#020518"></path><path d="M562.4 401L629.3 366L552.3 336Z" fill="#010d1c" stroke="#010d1c"></path><path d="M642.4 374L562.4 401L658.2 393Z" fill="#010c1b" stroke="#010c1b"></path><path d="M341.7 478L342.6 471L288.6 435Z" fill="#010d1c" stroke="#010d1c"></path><path d="M342.6 430L342.6 471L362.5 439Z" fill="#020116" stroke="#020116"></path><path d="M629.3 366L641.2 278L605.4 283Z" fill="#020518" stroke="#020518"></path><path d="M605.4 283L605.4 195L558.3 188Z" fill="#00111e" stroke="#00111e"></path><path d="M434.6 103L379.5 133L385.5 141Z" fill="#010619" stroke="#010619"></path><path d="M385.5 141L350.6 132L326.6 180Z" fill="#00111e" stroke="#00111e"></path><path d="M641.2 278L605.4 195L605.4 283Z" fill="#010d1c" stroke="#010d1c"></path><path d="M501.4 63L451.5 71L463.5 134Z" fill="#010a1a" stroke="#010a1a"></path><path d="M374.6 499L397.5 503L398.6 473Z" fill="#010a1a" stroke="#010a1a"></path><path d="M398.6 473L418.5 519L456.6 471Z" fill="#010d1c" stroke="#010d1c"></path><path d="M456.6 471L533.5 509L506.4 450Z" fill="#020116" stroke="#020116"></path><path d="M288.6 435L342.6 430L320.7 394Z" fill="#010819" stroke="#010819"></path><path d="M342.6 471L374.6 499L398.6 473Z" fill="#010819" stroke="#010819"></path><path d="M341.7 478L374.6 499L342.6 471Z" fill="#010a1a" stroke="#010a1a"></path><path d="M660.4 486L562.4 401L541.4 422Z" fill="#020518" stroke="#020518"></path><path d="M678.3 320L669.2 279L641.2 278Z" fill="#010619" stroke="#010619"></path><path d="M236.7 387L288.6 435L320.7 394Z" fill="#00111e" stroke="#00111e"></path><path d="M335.6 577L418.5 519L397.5 503Z" fill="#010a1a" stroke="#010a1a"></path><path d="M397.5 503L418.5 519L398.6 473Z" fill="#020116" stroke="#020116"></path><path d="M506.4 450L533.5 509L541.4 422Z" fill="#010619" stroke="#010619"></path><path d="M334.6 127L350.6 132L335.5 125Z" fill="#010a1a" stroke="#010a1a"></path><path d="M379.5 133L350.6 132L385.5 141Z" fill="#020518" stroke="#020518"></path><path d="M524.4 529L533.5 509L456.6 471Z" fill="#010819" stroke="#010819"></path><path d="M451.5 71L434.6 103L463.5 134Z" fill="#000e1c" stroke="#000e1c"></path><path d="M463.5 134L434.6 103L385.5 141Z" fill="#000e1c" stroke="#000e1c"></path><path d="M335.5 125L350.6 132L324.6 94Z" fill="#010c1b" stroke="#010c1b"></path><path d="M350.6 132L334.6 127L326.6 180Z" fill="#020116" stroke="#020116"></path><path d="M326.6 180L250.8 221L354.6 302Z" fill="#010819" stroke="#010819"></path><path d="M247.6 166L250.8 221L326.6 180Z" fill="#010a1a" stroke="#010a1a"></path><path d="M285.8 352L236.7 387L320.7 394Z" fill="#020518" stroke="#020518"></path><path d="M678.3 320L641.2 278L629.3 366Z" fill="#010619" stroke="#010619"></path><path d="M669.2 264L632.2 184L605.4 195Z" fill="#020317" stroke="#020317"></path><path d="M678.2 416L658.2 393L660.4 486Z" fill="#010d1c" stroke="#010d1c"></path><path d="M642.4 374L678.3 320L629.3 366Z" fill="#010619" stroke="#010619"></path><path d="M324.6 94L350.6 132L379.5 133Z" fill="#020518" stroke="#020518"></path><path d="M334.6 127L272.7 145L326.6 180Z" fill="#010819" stroke="#010819"></path><path d="M669.2 264L605.4 195L641.2 278Z" fill="#000e1c" stroke="#000e1c"></path><path d="M605.4 195L655.4 157L558.3 188Z" fill="#020116" stroke="#020116"></path><path d="M669.2 279L669.2 264L641.2 278Z" fill="#000e1c" stroke="#000e1c"></path><path d="M182.9 281L236.7 387L285.8 352Z" fill="#020317" stroke="#020317"></path><path d="M418.5 519L524.4 529L456.6 471Z" fill="#000e1c" stroke="#000e1c"></path><path d="M533.5 509L573.3 522L541.4 422Z" fill="#020317" stroke="#020317"></path><path d="M712.2 367L678.3 320L642.4 374Z" fill="#010819" stroke="#010819"></path><path d="M669.2 279L682.2 257L669.2 264Z" fill="#010619" stroke="#010619"></path><path d="M678.3 320L682.2 257L669.2 279Z" fill="#020116" stroke="#020116"></path><path d="M669.2 264L682.2 257L632.2 184Z" fill="#00101d" stroke="#00101d"></path><path d="M236.7 387L255.8 455L288.6 435Z" fill="#020518" stroke="#020518"></path><path d="M288.6 435L255.8 455L341.7 478Z" fill="#020116" stroke="#020116"></path><path d="M341.7 478L335.6 577L374.6 499Z" fill="#020317" stroke="#020317"></path><path d="M374.6 499L335.6 577L397.5 503Z" fill="#00111e" stroke="#00111e"></path><path d="M569.4 527L573.3 522L533.5 509Z" fill="#020317" stroke="#020317"></path><path d="M216.8 200L217.8 253L250.8 221Z" fill="#020317" stroke="#020317"></path><path d="M250.8 221L217.8 253L285.8 352Z" fill="#020518" stroke="#020518"></path><path d="M500.5 600L551.4 536L524.4 529Z" fill="#000e1c" stroke="#000e1c"></path><path d="M524.4 529L551.4 536L533.5 509Z" fill="#010d1c" stroke="#010d1c"></path><path d="M551.4 536L569.4 527L533.5 509Z" fill="#010a1a" stroke="#010a1a"></path><path d="M501.4 63L463.5 134L558.3 188Z" fill="#010619" stroke="#010619"></path><path d="M400.6 30L324.6 94L379.5 133Z" fill="#000e1c" stroke="#000e1c"></path><path d="M324.6 94L334.6 127L335.5 125Z" fill="#020518" stroke="#020518"></path><path d="M324.6 94L272.7 145L334.6 127Z" fill="#010d1c" stroke="#010d1c"></path><path d="M660.4 486L658.2 393L562.4 401Z" fill="#00111e" stroke="#00111e"></path><path d="M658.2 393L712.2 367L642.4 374Z" fill="#020116" stroke="#020116"></path><path d="M722.3 243L713.3 230L682.2 257Z" fill="#000e1c" stroke="#000e1c"></path><path d="M660.4 486L541.4 422L573.3 522Z" fill="#010d1c" stroke="#010d1c"></path><path d="M272.7 145L247.6 166L326.6 180Z" fill="#00101d" stroke="#00101d"></path><path d="M247.6 166L236.7 180L250.8 221Z" fill="#010819" stroke="#010819"></path><path d="M400.6 30L379.5 133L434.6 103Z" fill="#000e1c" stroke="#000e1c"></path><path d="M272.7 145L209.8 107L247.6 166Z" fill="#010619" stroke="#010619"></path><path d="M558.4 60L501.4 63L558.3 188Z" fill="#00111e" stroke="#00111e"></path><path d="M713.3 230L655.4 157L632.2 184Z" fill="#010619" stroke="#010619"></path><path d="M632.2 184L655.4 157L605.4 195Z" fill="#020116" stroke="#020116"></path><path d="M177.8 179L216.8 200L236.7 180Z" fill="#020116" stroke="#020116"></path><path d="M236.7 180L216.8 200L250.8 221Z" fill="#00111e" stroke="#00111e"></path><path d="M216.8 200L194.7 265L217.8 253Z" fill="#010d1c" stroke="#010d1c"></path><path d="M217.8 253L182.9 281L285.8 352Z" fill="#000e1c" stroke="#000e1c"></path><path d="M236.7 387L194.8 409L255.8 455Z" fill="#020317" stroke="#020317"></path><path d="M678.2 416L712.2 367L658.2 393Z" fill="#020116" stroke="#020116"></path><path d="M682.2 257L713.3 230L632.2 184Z" fill="#020518" stroke="#020518"></path><path d="M190.9 392L196.7 401L236.7 387Z" fill="#010d1c" stroke="#010d1c"></path><path d="M137.9 219L182.9 281L194.7 265Z" fill="#010d1c" stroke="#010d1c"></path><path d="M194.7 265L182.9 281L217.8 253Z" fill="#020317" stroke="#020317"></path><path d="M630.2 542L660.4 486L573.3 522Z" fill="#020317" stroke="#020317"></path><path d="M678.2 416L712.1 415L712.2 367Z" fill="#010c1b" stroke="#010c1b"></path><path d="M630.2 542L573.3 522L569.4 527Z" fill="#010a1a" stroke="#010a1a"></path><path d="M158.8 308L190.9 392L236.7 387Z" fill="#020317" stroke="#020317"></path><path d="M190.9 392L194.8 409L196.7 401Z" fill="#00111e" stroke="#00111e"></path><path d="M196.7 401L194.8 409L236.7 387Z" fill="#010d1c" stroke="#010d1c"></path><path d="M722.3 243L682.2 257L678.3 320Z" fill="#020317" stroke="#020317"></path><path d="M210.8 526L262.8 517L255.8 455Z" fill="#010c1b" stroke="#010c1b"></path><path d="M255.8 455L262.8 517L341.7 478Z" fill="#00101d" stroke="#00101d"></path><path d="M418.5 519L500.5 600L524.4 529Z" fill="#00111e" stroke="#00111e"></path><path d="M660.3 106L558.4 60L558.3 188Z" fill="#010619" stroke="#010619"></path><path d="M713.3 230L669.2 144L655.4 157Z" fill="#020317" stroke="#020317"></path><path d="M655.4 157L660.3 106L558.3 188Z" fill="#010a1a" stroke="#010a1a"></path><path d="M669.2 144L663.4 133L655.4 157Z" fill="#00101d" stroke="#00101d"></path><path d="M709.1 424L712.1 415L678.2 416Z" fill="#010c1b" stroke="#010c1b"></path><path d="M794.1 290L722.3 243L678.3 320Z" fill="#010c1b" stroke="#010c1b"></path><path d="M660.4 486L709.1 424L678.2 416Z" fill="#000e1c" stroke="#000e1c"></path><path d="M794.1 290L678.3 320L712.2 367Z" fill="#010619" stroke="#010619"></path><path d="M674.2 110L663.4 133L669.2 144Z" fill="#020116" stroke="#020116"></path><path d="M674.2 110L660.3 106L663.4 133Z" fill="#020518" stroke="#020518"></path><path d="M262.8 517L335.6 577L341.7 478Z" fill="#010d1c" stroke="#010d1c"></path><path d="M335.6 577L407.5 600L418.5 519Z" fill="#010a1a" stroke="#010a1a"></path><path d="M499.5 0L451.5 71L501.4 63Z" fill="#020116" stroke="#020116"></path><path d="M435.5 -14L400.6 30L451.5 71Z" fill="#020317" stroke="#020317"></path><path d="M451.5 71L400.6 30L434.6 103Z" fill="#020116" stroke="#020116"></path><path d="M407.5 600L500.5 600L418.5 519Z" fill="#00111e" stroke="#00111e"></path><path d="M573.4 600L630.2 542L569.4 527Z" fill="#010819" stroke="#010819"></path><path d="M573.4 600L569.4 527L551.4 536Z" fill="#00101d" stroke="#00101d"></path><path d="M749.2 469L727.2 418L709.1 424Z" fill="#010a1a" stroke="#010a1a"></path><path d="M104.8 276L158.8 308L182.9 281Z" fill="#000e1c" stroke="#000e1c"></path><path d="M182.9 281L158.8 308L236.7 387Z" fill="#020518" stroke="#020518"></path><path d="M190.9 392L153.8 439L194.8 409Z" fill="#010c1b" stroke="#010c1b"></path><path d="M709.1 424L727.2 418L712.1 415Z" fill="#00111e" stroke="#00111e"></path><path d="M712.1 415L727.2 418L712.2 367Z" fill="#020518" stroke="#020518"></path><path d="M701.2 493L709.1 424L660.4 486Z" fill="#010c1b" stroke="#010c1b"></path><path d="M334.6 0L288.7 68L324.6 94Z" fill="#020116" stroke="#020116"></path><path d="M324.6 94L288.7 68L272.7 145Z" fill="#010c1b" stroke="#010c1b"></path><path d="M209.8 107L177.8 179L236.7 180Z" fill="#010c1b" stroke="#010c1b"></path><path d="M674.2 110L748.2 89L701.2 67Z" fill="#010a1a" stroke="#010a1a"></path><path d="M663.4 133L660.3 106L655.4 157Z" fill="#010c1b" stroke="#010c1b"></path><path d="M639.3 600L653.3 538L630.2 542Z" fill="#010c1b" stroke="#010c1b"></path><path d="M630.2 542L653.3 538L660.4 486Z" fill="#010a1a" stroke="#010a1a"></path><path d="M674.2 110L669.2 144L748.2 89Z" fill="#010619" stroke="#010619"></path><path d="M532.5 0L521.4 15L560.4 0Z" fill="#00111e" stroke="#00111e"></path><path d="M261.6 600L344.6 600L335.6 577Z" fill="#010819" stroke="#010819"></path><path d="M335.6 577L344.6 600L407.5 600Z" fill="#010a1a" stroke="#010a1a"></path><path d="M209.8 107L236.7 180L247.6 166Z" fill="#00101d" stroke="#00101d"></path><path d="M216.8 200L137.9 219L194.7 265Z" fill="#010a1a" stroke="#010a1a"></path><path d="M653.3 538L701.2 493L660.4 486Z" fill="#00111e" stroke="#00111e"></path><path d="M521.4 15L558.4 60L560.4 0Z" fill="#00101d" stroke="#00101d"></path><path d="M558.4 60L521.4 15L501.4 63Z" fill="#020116" stroke="#020116"></path><path d="M500.5 600L573.4 600L551.4 536Z" fill="#010c1b" stroke="#010c1b"></path><path d="M407.5 600L509.5 621L500.5 600Z" fill="#00111e" stroke="#00111e"></path><path d="M500.5 600L509.5 621L573.4 600Z" fill="#010c1b" stroke="#010c1b"></path><path d="M344.6 600L509.5 621L407.5 600Z" fill="#010a1a" stroke="#010a1a"></path><path d="M288.7 68L209.8 107L272.7 145Z" fill="#020116" stroke="#020116"></path><path d="M532.5 0L499.5 0L521.4 15Z" fill="#020116" stroke="#020116"></path><path d="M521.4 15L499.5 0L501.4 63Z" fill="#020317" stroke="#020317"></path><path d="M104.8 276L131.9 336L158.8 308Z" fill="#000e1c" stroke="#000e1c"></path><path d="M158.8 308L131.9 336L190.9 392Z" fill="#000e1c" stroke="#000e1c"></path><path d="M153.8 439L210.8 526L255.8 455Z" fill="#010a1a" stroke="#010a1a"></path><path d="M153.8 439L255.8 455L194.8 409Z" fill="#020518" stroke="#020518"></path><path d="M262.8 517L265.7 580L335.6 577Z" fill="#010d1c" stroke="#010d1c"></path><path d="M134.9 436L153.8 439L190.9 392Z" fill="#010d1c" stroke="#010d1c"></path><path d="M790.1 440L767.2 374L727.2 418Z" fill="#010d1c" stroke="#010d1c"></path><path d="M727.2 418L767.2 374L712.2 367Z" fill="#020116" stroke="#020116"></path><path d="M220.8 578L265.7 580L262.8 517Z" fill="#010a1a" stroke="#010a1a"></path><path d="M560.4 0L558.4 60L594.4 0Z" fill="#010a1a" stroke="#010a1a"></path><path d="M88.9 130L137.9 219L177.8 179Z" fill="#020317" stroke="#020317"></path><path d="M177.8 179L137.9 219L216.8 200Z" fill="#010a1a" stroke="#010a1a"></path><path d="M499.5 0L435.5 -14L451.5 71Z" fill="#010619" stroke="#010619"></path><path d="M400.6 30L334.6 0L324.6 94Z" fill="#010c1b" stroke="#010c1b"></path><path d="M205.8 52L195.7 94L209.8 107Z" fill="#010819" stroke="#010819"></path><path d="M532.5 0L435.5 -14L499.5 0Z" fill="#010a1a" stroke="#010a1a"></path><path d="M509.5 621L621.4 600L573.4 600Z" fill="#00101d" stroke="#00101d"></path><path d="M573.4 600L621.4 600L630.2 542Z" fill="#020518" stroke="#020518"></path><path d="M766.2 600L758.2 488L701.2 493Z" fill="#010c1b" stroke="#010c1b"></path><path d="M651.3 43L558.4 60L660.3 106Z" fill="#020317" stroke="#020317"></path><path d="M532.5 0L560.4 0L435.5 -14Z" fill="#00101d" stroke="#00101d"></path><path d="M435.5 -14L334.6 0L400.6 30Z" fill="#020518" stroke="#020518"></path><path d="M758.2 488L749.2 469L701.2 493Z" fill="#000e1c" stroke="#000e1c"></path><path d="M701.2 493L749.2 469L709.1 424Z" fill="#010619" stroke="#010619"></path><path d="M205.8 52L209.8 107L288.7 68Z" fill="#010819" stroke="#010819"></path><path d="M209.8 107L195.7 94L177.8 179Z" fill="#020518" stroke="#020518"></path><path d="M662.2 48L651.3 43L660.3 106Z" fill="#00111e" stroke="#00111e"></path><path d="M662.2 48L660.3 106L701.2 67Z" fill="#020317" stroke="#020317"></path><path d="M153.8 439L135.9 471L210.8 526Z" fill="#020518" stroke="#020518"></path><path d="M131.9 336L134.9 436L190.9 392Z" fill="#000e1c" stroke="#000e1c"></path><path d="M701.2 67L660.3 106L674.2 110Z" fill="#010c1b" stroke="#010c1b"></path><path d="M651.3 43L594.4 0L558.4 60Z" fill="#020518" stroke="#020518"></path><path d="M796.1 229L713.3 230L722.3 243Z" fill="#010c1b" stroke="#010c1b"></path><path d="M716.3 620L639.3 600L621.4 600Z" fill="#010819" stroke="#010819"></path><path d="M621.4 600L639.3 600L630.2 542Z" fill="#010c1b" stroke="#010c1b"></path><path d="M242.8 600L261.6 600L265.7 580Z" fill="#010c1b" stroke="#010c1b"></path><path d="M265.7 580L261.6 600L335.6 577Z" fill="#010a1a" stroke="#010a1a"></path><path d="M344.6 600L261.6 600L509.5 621Z" fill="#010819" stroke="#010819"></path><path d="M220.8 578L262.8 517L210.8 526Z" fill="#00101d" stroke="#00101d"></path><path d="M435.5 -14L314.7 0L334.6 0Z" fill="#010c1b" stroke="#010c1b"></path><path d="M334.6 0L314.7 0L288.7 68Z" fill="#010c1b" stroke="#010c1b"></path><path d="M810.2 333L794.1 290L767.2 374Z" fill="#010819" stroke="#010819"></path><path d="M767.2 374L794.1 290L712.2 367Z" fill="#010d1c" stroke="#010d1c"></path><path d="M643.4 15L594.4 0L651.3 43Z" fill="#000e1c" stroke="#000e1c"></path><path d="M560.4 0L594.4 0L435.5 -14Z" fill="#00111e" stroke="#00111e"></path><path d="M134.9 436L135.9 463L153.8 439Z" fill="#010819" stroke="#010819"></path><path d="M90.8 245L104.8 276L137.9 219Z" fill="#020116" stroke="#020116"></path><path d="M137.9 219L104.8 276L182.9 281Z" fill="#010d1c" stroke="#010d1c"></path><path d="M131.9 336L94.9 348L134.9 436Z" fill="#010a1a" stroke="#010a1a"></path><path d="M102.8 473L135.9 471L135.9 463Z" fill="#00111e" stroke="#00111e"></path><path d="M199.7 577L220.8 578L210.8 526Z" fill="#020116" stroke="#020116"></path><path d="M102.8 473L135.9 463L134.9 436Z" fill="#010c1b" stroke="#010c1b"></path><path d="M135.9 463L135.9 471L153.8 439Z" fill="#020518" stroke="#020518"></path><path d="M748.2 89L669.2 144L713.3 230Z" fill="#010d1c" stroke="#010d1c"></path><path d="M674.3 0L643.4 15L651.3 43Z" fill="#020518" stroke="#020518"></path><path d="M681.2 600L701.2 493L653.3 538Z" fill="#010819" stroke="#010819"></path><path d="M749.2 469L790.1 440L727.2 418Z" fill="#020518" stroke="#020518"></path><path d="M220.8 578L242.8 600L265.7 580Z" fill="#020317" stroke="#020317"></path><path d="M261.6 600L140.9 607L509.5 621Z" fill="#010d1c" stroke="#010d1c"></path><path d="M794.1 290L796.1 229L722.3 243Z" fill="#010619" stroke="#010619"></path><path d="M674.3 0L651.3 43L662.2 48Z" fill="#010819" stroke="#010819"></path><path d="M71.9 327L94.9 348L131.9 336Z" fill="#010619" stroke="#010619"></path><path d="M246.6 0L205.8 52L288.7 68Z" fill="#00111e" stroke="#00111e"></path><path d="M195.7 94L88.9 130L177.8 179Z" fill="#000e1c" stroke="#000e1c"></path><path d="M841.1 364L810.2 333L767.2 374Z" fill="#020518" stroke="#020518"></path><path d="M794.1 290L859.1 233L796.1 229Z" fill="#010819" stroke="#010819"></path><path d="M758.2 488L790.1 440L749.2 469Z" fill="#020116" stroke="#020116"></path><path d="M105.8 505L199.7 577L210.8 526Z" fill="#020116" stroke="#020116"></path><path d="M220.8 578L200.7 600L242.8 600Z" fill="#010819" stroke="#010819"></path><path d="M205.8 52L177.8 74L195.7 94Z" fill="#020317" stroke="#020317"></path><path d="M43.9 179L90.8 245L137.9 219Z" fill="#020317" stroke="#020317"></path><path d="M104.8 276L71.9 327L131.9 336Z" fill="#010c1b" stroke="#010c1b"></path><path d="M716.3 620L681.2 600L639.3 600Z" fill="#010c1b" stroke="#010c1b"></path><path d="M639.3 600L681.2 600L653.3 538Z" fill="#010619" stroke="#010619"></path><path d="M796.1 229L748.2 89L713.3 230Z" fill="#00111e" stroke="#00111e"></path><path d="M715.2 0L674.3 0L662.2 48Z" fill="#010a1a" stroke="#010a1a"></path><path d="M63.9 358L79.8 370L94.9 348Z" fill="#010819" stroke="#010819"></path><path d="M94.9 348L79.8 370L134.9 436Z" fill="#00101d" stroke="#00101d"></path><path d="M314.7 0L246.6 0L288.7 68Z" fill="#010819" stroke="#010819"></path><path d="M205.8 52L192.8 21L177.8 74Z" fill="#010a1a" stroke="#010a1a"></path><path d="M140.9 -19L246.6 0L314.7 0Z" fill="#010c1b" stroke="#010c1b"></path><path d="M90.8 245L71.9 327L104.8 276Z" fill="#010d1c" stroke="#010d1c"></path><path d="M163.9 600L200.7 600L199.7 577Z" fill="#010819" stroke="#010819"></path><path d="M199.7 577L200.7 600L220.8 578Z" fill="#010d1c" stroke="#010d1c"></path><path d="M242.8 600L140.9 607L261.6 600Z" fill="#020317" stroke="#020317"></path><path d="M105.8 505L210.8 526L135.9 471Z" fill="#010c1b" stroke="#010c1b"></path><path d="M77.9 422L80.9 409L63.9 418Z" fill="#00101d" stroke="#00101d"></path><path d="M79.8 370L80.9 409L134.9 436Z" fill="#00111e" stroke="#00111e"></path><path d="M77.9 422L102.8 473L134.9 436Z" fill="#010619" stroke="#010619"></path><path d="M246.6 0L211.8 16L205.8 52Z" fill="#010c1b" stroke="#010c1b"></path><path d="M140.9 -19L231.8 0L246.6 0Z" fill="#010619" stroke="#010619"></path><path d="M246.6 0L231.8 0L211.8 16Z" fill="#010a1a" stroke="#010a1a"></path><path d="M715.2 0L662.2 48L701.2 67Z" fill="#020116" stroke="#020116"></path><path d="M643.4 15L674.3 0L594.4 0Z" fill="#000e1c" stroke="#000e1c"></path><path d="M594.4 0L846.1 -37L435.5 -14Z" fill="#010c1b" stroke="#010c1b"></path><path d="M63.9 418L80.9 409L79.8 370Z" fill="#010819" stroke="#010819"></path><path d="M80.9 409L77.9 422L134.9 436Z" fill="#000e1c" stroke="#000e1c"></path><path d="M0 330L63.9 358L71.9 327Z" fill="#020317" stroke="#020317"></path><path d="M71.9 327L63.9 358L94.9 348Z" fill="#00101d" stroke="#00101d"></path><path d="M173.9 0L192.8 21L211.8 16Z" fill="#000e1c" stroke="#000e1c"></path><path d="M211.8 16L192.8 21L205.8 52Z" fill="#020116" stroke="#020116"></path><path d="M177.8 74L88.9 130L195.7 94Z" fill="#00101d" stroke="#00101d"></path><path d="M807.1 567L802.1 490L758.2 488Z" fill="#020317" stroke="#020317"></path><path d="M758.2 488L802.1 490L790.1 440Z" fill="#020116" stroke="#020116"></path><path d="M790.1 440L841.1 364L767.2 374Z" fill="#020518" stroke="#020518"></path><path d="M864.1 404L841.1 364L790.1 440Z" fill="#010a1a" stroke="#010a1a"></path><path d="M810.2 333L849.1 331L794.1 290Z" fill="#020116" stroke="#020116"></path><path d="M26.9 529L105.8 505L102.8 473Z" fill="#020518" stroke="#020518"></path><path d="M102.8 473L105.8 505L135.9 471Z" fill="#00111e" stroke="#00111e"></path><path d="M841.1 364L849.1 331L810.2 333Z" fill="#00111e" stroke="#00111e"></path><path d="M791.2 50L771.1 57L748.2 89Z" fill="#010d1c" stroke="#010d1c"></path><path d="M63.9 358L63.9 418L79.8 370Z" fill="#020317" stroke="#020317"></path><path d="M77.9 422L63.9 418L102.8 473Z" fill="#010c1b" stroke="#010c1b"></path><path d="M105.8 505L163.9 600L199.7 577Z" fill="#010619" stroke="#010619"></path><path d="M200.7 600L140.9 607L242.8 600Z" fill="#010d1c" stroke="#010d1c"></path><path d="M509.5 621L716.3 620L621.4 600Z" fill="#020116" stroke="#020116"></path><path d="M681.2 600L766.2 600L701.2 493Z" fill="#00111e" stroke="#00111e"></path><path d="M79.9 103L88.9 130L177.8 74Z" fill="#020317" stroke="#020317"></path><path d="M90.8 245L0 323L71.9 327Z" fill="#010619" stroke="#010619"></path><path d="M771.1 57L715.2 0L701.2 67Z" fill="#010c1b" stroke="#010c1b"></path><path d="M674.3 0L846.1 -37L594.4 0Z" fill="#010d1c" stroke="#010d1c"></path><path d="M771.1 57L701.2 67L748.2 89Z" fill="#020317" stroke="#020317"></path><path d="M791.2 50L748.2 89L858.1 136Z" fill="#000e1c" stroke="#000e1c"></path><path d="M849.1 331L859.1 233L794.1 290Z" fill="#010d1c" stroke="#010d1c"></path><path d="M231.8 0L173.9 0L211.8 16Z" fill="#010c1b" stroke="#010c1b"></path><path d="M192.8 21L142.8 0L177.8 74Z" fill="#00101d" stroke="#00101d"></path><path d="M140.9 -19L173.9 0L231.8 0Z" fill="#010a1a" stroke="#010a1a"></path><path d="M841.1 364L889.1 333L849.1 331Z" fill="#010c1b" stroke="#010c1b"></path><path d="M849.1 331L900 325L859.1 233Z" fill="#00111e" stroke="#00111e"></path><path d="M852.1 503L864.1 404L790.1 440Z" fill="#020317" stroke="#020317"></path><path d="M852.1 503L790.1 440L802.1 490Z" fill="#020518" stroke="#020518"></path><path d="M716.3 620L766.2 600L681.2 600Z" fill="#020518" stroke="#020518"></path><path d="M69.8 600L140.9 607L105.8 505Z" fill="#020116" stroke="#020116"></path><path d="M105.8 505L140.9 607L163.9 600Z" fill="#000e1c" stroke="#000e1c"></path><path d="M163.9 600L140.9 607L200.7 600Z" fill="#010819" stroke="#010819"></path><path d="M102.9 0L79.9 103L177.8 74Z" fill="#020317" stroke="#020317"></path><path d="M88.9 130L43.9 179L137.9 219Z" fill="#010819" stroke="#010819"></path><path d="M0 127L43.9 179L88.9 130Z" fill="#010819" stroke="#010819"></path><path d="M63.9 358L0 377L63.9 418Z" fill="#00111e" stroke="#00111e"></path><path d="M858.1 136L748.2 89L796.1 229Z" fill="#020317" stroke="#020317"></path><path d="M771.1 57L751.2 0L715.2 0Z" fill="#010c1b" stroke="#010c1b"></path><path d="M785.1 0L751.2 0L771.1 57Z" fill="#00101d" stroke="#00101d"></path><path d="M715.2 0L846.1 -37L674.3 0Z" fill="#010819" stroke="#010819"></path><path d="M766.2 600L807.1 567L758.2 488Z" fill="#010619" stroke="#010619"></path><path d="M900 325L889.1 333L900 372Z" fill="#020317" stroke="#020317"></path><path d="M900 372L889.1 333L841.1 364Z" fill="#010a1a" stroke="#010a1a"></path><path d="M140.9 -19L142.8 0L173.9 0Z" fill="#010a1a" stroke="#010a1a"></path><path d="M173.9 0L142.8 0L192.8 21Z" fill="#00101d" stroke="#00101d"></path><path d="M884.1 200L871.1 178L859.1 233Z" fill="#00101d" stroke="#00101d"></path><path d="M859.1 233L871.1 178L796.1 229Z" fill="#010a1a" stroke="#010a1a"></path><path d="M807.1 567L852.1 503L802.1 490Z" fill="#010819" stroke="#010819"></path><path d="M766.2 600L806.2 582L807.1 567Z" fill="#020116" stroke="#020116"></path><path d="M875.1 588L900 540L852.1 503Z" fill="#010819" stroke="#010819"></path><path d="M871.1 178L858.1 136L796.1 229Z" fill="#00111e" stroke="#00111e"></path><path d="M900 218L884.1 200L859.1 233Z" fill="#00101d" stroke="#00101d"></path><path d="M871.1 178L871.1 130L858.1 136Z" fill="#010a1a" stroke="#010a1a"></path><path d="M0 211L11.9 219L0 191Z" fill="#010c1b" stroke="#010c1b"></path><path d="M43.9 179L11.9 219L90.8 245Z" fill="#010619" stroke="#010619"></path><path d="M900 372L841.1 364L864.1 404Z" fill="#010619" stroke="#010619"></path><path d="M889.1 333L900 325L849.1 331Z" fill="#010a1a" stroke="#010a1a"></path><path d="M900 540L900 488L852.1 503Z" fill="#020518" stroke="#020518"></path><path d="M766.2 600L798.1 600L806.2 582Z" fill="#010619" stroke="#010619"></path><path d="M716.3 620L798.1 600L766.2 600Z" fill="#010d1c" stroke="#010d1c"></path><path d="M11.9 219L0 323L90.8 245Z" fill="#010c1b" stroke="#010c1b"></path><path d="M0 488L26.9 529L102.8 473Z" fill="#00101d" stroke="#00101d"></path><path d="M0 323L0 330L71.9 327Z" fill="#010619" stroke="#010619"></path><path d="M900 378L900 372L864.1 404Z" fill="#010a1a" stroke="#010a1a"></path><path d="M900 488L900 378L864.1 404Z" fill="#010819" stroke="#010819"></path><path d="M0 330L0 375L63.9 358Z" fill="#000e1c" stroke="#000e1c"></path><path d="M0 375L0 377L63.9 358Z" fill="#00111e" stroke="#00111e"></path><path d="M435.5 -14L140.9 -19L314.7 0Z" fill="#010d1c" stroke="#010d1c"></path><path d="M142.8 0L102.9 0L177.8 74Z" fill="#010d1c" stroke="#010d1c"></path><path d="M0 191L11.9 219L43.9 179Z" fill="#00111e" stroke="#00111e"></path><path d="M900 185L871.1 130L871.1 178Z" fill="#00101d" stroke="#00101d"></path><path d="M858.1 136L871.1 130L791.2 50Z" fill="#00101d" stroke="#00101d"></path><path d="M791.2 50L785.1 0L771.1 57Z" fill="#020317" stroke="#020317"></path><path d="M839.1 0L785.1 0L791.2 50Z" fill="#010d1c" stroke="#010d1c"></path><path d="M751.2 0L846.1 -37L715.2 0Z" fill="#020317" stroke="#020317"></path><path d="M900 325L900 218L859.1 233Z" fill="#010619" stroke="#010619"></path><path d="M884.1 200L900 185L871.1 178Z" fill="#000e1c" stroke="#000e1c"></path><path d="M0 191L43.9 179L0 186Z" fill="#010a1a" stroke="#010a1a"></path><path d="M11.9 219L-24.1 313L0 323Z" fill="#010a1a" stroke="#010a1a"></path><path d="M900 218L900 186L884.1 200Z" fill="#00101d" stroke="#00101d"></path><path d="M0 186L43.9 179L0 127Z" fill="#010c1b" stroke="#010c1b"></path><path d="M900 186L900 185L884.1 200Z" fill="#010d1c" stroke="#010d1c"></path><path d="M0 127L88.9 130L79.9 103Z" fill="#010a1a" stroke="#010a1a"></path><path d="M140.9 -19L102.9 0L142.8 0Z" fill="#010d1c" stroke="#010d1c"></path><path d="M0 186L-24.1 313L0 191Z" fill="#010619" stroke="#010619"></path><path d="M0 191L-24.1 313L0 211Z" fill="#010c1b" stroke="#010c1b"></path><path d="M0 211L-24.1 313L11.9 219Z" fill="#010a1a" stroke="#010a1a"></path><path d="M0 323L-24.1 313L0 330Z" fill="#00111e" stroke="#00111e"></path><path d="M0 330L-24.1 313L0 375Z" fill="#00101d" stroke="#00101d"></path><path d="M0 375L-24.1 313L0 377Z" fill="#000e1c" stroke="#000e1c"></path><path d="M0 488L102.8 473L63.9 418Z" fill="#00111e" stroke="#00111e"></path><path d="M0 488L63.9 418L0 377Z" fill="#00101d" stroke="#00101d"></path><path d="M26.9 529L69.8 600L105.8 505Z" fill="#010819" stroke="#010819"></path><path d="M852.1 503L807.1 567L875.1 588Z" fill="#010d1c" stroke="#010d1c"></path><path d="M852.1 503L900 488L864.1 404Z" fill="#020116" stroke="#020116"></path><path d="M-24.1 313L0 488L0 377Z" fill="#020518" stroke="#020518"></path><path d="M26.9 529L28.9 600L69.8 600Z" fill="#010a1a" stroke="#010a1a"></path><path d="M0 67L0 127L79.9 103Z" fill="#020518" stroke="#020518"></path><path d="M0 186L0 127L-24.1 313Z" fill="#010619" stroke="#010619"></path><path d="M900 90L791.2 50L871.1 130Z" fill="#020518" stroke="#020518"></path><path d="M900 46L839.1 0L791.2 50Z" fill="#020518" stroke="#020518"></path><path d="M785.1 0L846.1 -37L751.2 0Z" fill="#00101d" stroke="#00101d"></path><path d="M900 185L900 90L871.1 130Z" fill="#010619" stroke="#010619"></path><path d="M875.1 588L807.1 567L867.1 600Z" fill="#020317" stroke="#020317"></path><path d="M-24.1 313L0 538L0 488Z" fill="#010c1b" stroke="#010c1b"></path><path d="M0 488L0 538L26.9 529Z" fill="#020317" stroke="#020317"></path><path d="M867.1 600L806.2 582L859.1 625Z" fill="#010c1b" stroke="#010c1b"></path><path d="M867.1 600L807.1 567L806.2 582Z" fill="#00111e" stroke="#00111e"></path><path d="M859.1 625L806.2 582L798.1 600Z" fill="#010619" stroke="#010619"></path><path d="M0 538L28.9 600L26.9 529Z" fill="#020317" stroke="#020317"></path><path d="M69.8 600L28.9 600L140.9 607Z" fill="#010a1a" stroke="#010a1a"></path><path d="M0 0L29.9 22L102.9 0Z" fill="#010c1b" stroke="#010c1b"></path><path d="M102.9 0L29.9 22L79.9 103Z" fill="#020317" stroke="#020317"></path><path d="M716.3 620L859.1 625L798.1 600Z" fill="#00111e" stroke="#00111e"></path><path d="M900 600L900 575L875.1 588Z" fill="#010819" stroke="#010819"></path><path d="M875.1 588L900 575L900 540Z" fill="#00111e" stroke="#00111e"></path><path d="M509.5 621L859.1 625L716.3 620Z" fill="#010c1b" stroke="#010c1b"></path><path d="M29.9 22L0 67L79.9 103Z" fill="#010819" stroke="#010819"></path><path d="M0 127L0 67L-24.1 313Z" fill="#010d1c" stroke="#010d1c"></path><path d="M900 600L875.1 588L867.1 600Z" fill="#010619" stroke="#010619"></path><path d="M900 90L900 46L791.2 50Z" fill="#010819" stroke="#010819"></path><path d="M900 0L846.1 -37L839.1 0Z" fill="#010a1a" stroke="#010a1a"></path><path d="M839.1 0L846.1 -37L785.1 0Z" fill="#00111e" stroke="#00111e"></path><path d="M435.5 -14L846.1 -37L140.9 -19Z" fill="#010619" stroke="#010619"></path><path d="M859.1 625L900 600L867.1 600Z" fill="#010c1b" stroke="#010c1b"></path><path d="M-24.1 313L0 600L0 538Z" fill="#010a1a" stroke="#010a1a"></path><path d="M0 538L0 600L28.9 600Z" fill="#000e1c" stroke="#000e1c"></path><path d="M28.9 600L0 600L140.9 607Z" fill="#010d1c" stroke="#010d1c"></path><path d="M900 46L900 0L839.1 0Z" fill="#010d1c" stroke="#010d1c"></path><path d="M140.9 -19L0 0L102.9 0Z" fill="#020317" stroke="#020317"></path><path d="M29.9 22L0 0L0 67Z" fill="#00101d" stroke="#00101d"></path><path d="M0 67L0 0L-24.1 313Z" fill="#00111e" stroke="#00111e"></path><path d="M900 90L914.1 -8L900 46Z" fill="#010819" stroke="#010819"></path><path d="M900 46L914.1 -8L900 0Z" fill="#010619" stroke="#010619"></path><path d="M900 0L914.1 -8L846.1 -37Z" fill="#00101d" stroke="#00101d"></path><path d="M900 185L914.1 -8L900 90Z" fill="#010a1a" stroke="#010a1a"></path><path d="M900 186L914.1 -8L900 185Z" fill="#00101d" stroke="#00101d"></path><path d="M900 218L914.1 -8L900 186Z" fill="#010619" stroke="#010619"></path><path d="M900 325L914.1 -8L900 218Z" fill="#00101d" stroke="#00101d"></path><path d="M900 372L914.1 -8L900 325Z" fill="#010819" stroke="#010819"></path><path d="M900 378L914.1 -8L900 372Z" fill="#010d1c" stroke="#010d1c"></path><path d="M900 488L914.1 -8L900 378Z" fill="#010619" stroke="#010619"></path><path d="M900 540L914.1 -8L900 488Z" fill="#020317" stroke="#020317"></path><path d="M900 575L914.1 -8L900 540Z" fill="#010a1a" stroke="#010a1a"></path><path d="M900 600L914.1 -8L900 575Z" fill="#010619" stroke="#010619"></path></g></svg>