<svg xmlns="http://www.w3.org/2000/svg" version="1.1" viewBox="-5.0 -10.0 110.0 135.0">
 <path d="m87.086 54.914h5.4023c0-0.92969 0-1.8555 0.007813-2.7891h7.4961l0.007812-3.5-7.5117-0.042969v-2.8242h-5.4023v-2.8008h-3.7109v-7.4297h3.6875c0.007812-1.2344 0.003906-2.4727 0-3.7109h3.6289c0.003906-1.2344 0.003906-2.4727 0-3.7109h2.0078c0-1.2344-0.007813-2.4688 0.011719-3.7031-2.5547 0-5.1094-0.023438-7.6641 0.019531l-0.019531 3.6719-9.0586 0.007812v-3.6641c-1.2383-0.023438-2.4727-0.027344-3.7148-0.011719v-9.3438c1.2305 0.003907 2.457 0 3.6875-0.007812 0.019532-2.4531 0.023438-4.9102 0.011719-7.3594-1.2266-0.011719-2.4531-0.011719-3.6836 0v2.8594l-3.6641 0.011719-0.007813 2.7891h-3.7148l-0.007812 3.6953-7.4688-0.007812c0-2.0352 0.027344-4.0703-0.007812-6.1094h-2.7305l0.011719-3.2617h-2.9492l-0.007813-7.3672c-1.1602-0.011719-2.3125-0.011719-3.4727 0l-0.007812 7.3594-2.9492 0.007812v3.2617c-0.91406 0-1.8242-0.011719-2.7344 0v6.0703h-7.4297v-3.6602h-3.7188l-0.007812-2.9922c-1.2383-0.007813-2.4805-0.011719-3.7188 0v-2.6836h-3.6094l0.007812 7.3789c1.207 0 2.418 0.019532 3.6211 0v9.3359h-3.6523l-0.007812 3.6992h-9.2188l-0.003907-3.6992-7.75 0.003906c0 1.2266-0.011718 2.4609 0 3.6914l2.1602-0.007812v3.7109c1.2305 0.007813 2.4609 0.007813 3.6914 0v3.7266s3.7031-0.003906 3.7031-0.003906v7.4453s-3.7031 0.003906-3.7031 0.003906v1.957h-5.5703l-0.007812 3.6602-7.3203 0.011718-0.023438 3.4023h7.3477l-0.007812 3.3008 5.5273-0.007813v2.5039h3.7695l-0.007813 7.4219h-3.7031v3.7109h-3.5938v3.7148h-2.1797s0.019531 3.7031 0.019531 3.7031c2.5156 0 5.0391 0.035157 7.5547-0.027343v-3.6719l9.3203-0.003906v3.7031c1.2227 0.003907 2.4414 0 3.668-0.027343 0 3.0781 0.03125 6.1602 0 9.2383h-3.6602l-0.019532 7.625h3.6719v-2.8945h3.6797c0-0.93359-0.007813-1.875 0.007812-2.8086 1.25 0 2.4922-0.011719 3.7422-0.035156v-3.6602s7.4141-0.007812 7.4141-0.007812l0.011719 6.5117h2.7383c0 0.96094-0.003906 1.9297 0.007813 2.8945h2.9336v6.4961h3.3203l0.14062-0.039063c0.12109-0.55078 0.027344-1.3008 0.027344-1.8711v-4.5859h2.9453v-2.8906s2.7422-0.003906 2.7422-0.003906v-6.5c2.4922 0 4.9805-0.03125 7.4688 0v3.6602s3.7461-0.007813 3.7461-0.007813l0.011719 3.0859h3.6797l-0.003907 2.7188h3.6562v-7.6562h-3.7031v-9.2734l3.7109-0.007812v-3.6562h9.1094v3.6562h7.6523v-3.6641s-2.3867 0.003906-2.3867 0.003906l-0.007813-3.7031h-3.2773l0.003906-3.7031h-3.6719v-7.4336h3.6797c0.011718-0.96484 0.019531-1.9297 0.007812-2.8945zm-55.824 14c-1.1602-0.082031-2.3789-0.007812-3.543-0.019531-0.011719-1.2227-0.011719-3.668-0.019531-3.668-1.2188-0.039062-2.4531 0-3.668 0-0.058594-2.0977 0-4.2109-0.011719-6.3086 0.011719-0.37109 0.027344-0.73828 0.027344-1.1094l3.6719-0.007813 0.007812 7.4219h3.5781l-0.039063 3.6875zm3.8594 3.6992s-2.6797 0.03125-3.6875 0.03125c-0.011719-1.2305 0-2.4609 0-3.6914 1.2305-0.050781 2.4688-0.023437 3.6992-0.023437l-0.007812 3.6797zm0.007812-40.789h-3.6914l-0.011719 3.7109h-3.7031v7.4297h-3.7031l-0.007812 14.844h-3.6953c-0.050781-2.0352-0.007812-4.082-0.007812-6.1211-0.007813-2.9102 0-5.8125 0.027344-8.7227h3.6797c0.097656-2.4688 0.007813-4.9609 0.027344-7.4336h3.6836c0.019532-1.2344 0.007813-2.4727 0.019532-3.7109h3.6992c0.039063-1.2305 0.011719-2.4727 0.019532-3.7031l3.6836-0.007813c0.03125-1.2344 0.007812-2.4727 0.003906-3.7109h7.4297v3.7109h-7.4297l-0.003906 3.7148zm7.4023 44.449-0.070312 0.0625c-0.80469-0.0625-1.6641 0-2.4727 0h-4.8477v-3.6836h7.4297c0 0.99219 0.11328 2.6953-0.03125 3.6211zm26.023-3.6289-3.6602 0.007813v3.6562c-2.4883 0-4.9883-0.058594-7.4688 0.011718-0.054687-1.2188-0.011719-2.4531-0.011719-3.668h7.4727c-0.007813-1.2344-0.007813-2.4688 0-3.7031h3.668c-0.023438-1.2266 0-2.4492 0-3.6719l3.7109-0.007813 0.007813 3.6719h-3.6836l-0.035156 3.6992zm3.6797-37.129c-1.207-0.070313-2.4688 0-3.6836 0 0 0-0.011719-3.6953-0.023437-3.6953-1.2266-0.023437-2.4609 0-3.6875 0 0-1.2383 0-2.4805 0.011718-3.7188-2.4805-0.050781-4.9688 0-7.4453 0 0.007812-1.2344 0.007812-2.4648-0.011719-3.6992h7.4922c0 1.2305 0.019531 2.4688-0.011719 3.7031h3.6875l-0.003906 3.7148h3.7188c0 1.2109-0.066406 2.4805 0.003906 3.6914 1.2344 0.007812 2.4688 0.003906 3.7031-0.011719v7.4375c-1.2266 0.039062-2.4648 0.019531-3.6953 0.019531-0.042968-2.4805-0.035156-7.4414-0.050781-7.4414zm7.4883 22.289h-3.7109l-0.03125 7.4297c-1.2266 0-2.4648-0.027344-3.6914 0.007813l0.019532-7.4375h3.668l0.042969-14.852h3.668c0 4.9453 0.070312 9.8984 0.03125 14.848z"/>
<text x="0.0" y="117.5" font-size="5.0" font-weight="bold" font-family="Arbeit Regular, Helvetica, Arial-Unicode, Arial, Sans-serif" fill="#000000">Created by NHA</text><text x="0.0" y="122.5" font-size="5.0" font-weight="bold" font-family="Arbeit Regular, Helvetica, Arial-Unicode, Arial, Sans-serif" fill="#000000">from Noun Project</text></svg>